<svg xmlns="http://www.w3.org/2000/svg" xmlns:xlink="http://www.w3.org/1999/xlink" width="1000" zoomAndPan="magnify" viewBox="0 0 750 149.999998" height="200" preserveAspectRatio="xMidYMid meet" version="1.0"><defs><g/><clipPath id="id1"><path d="M 89 14 L 675 14 L 675 40 L 89 40 Z M 89 14 " clip-rule="nonzero"/></clipPath><clipPath id="id2"><path d="M 89.234375 31.566406 L 673.980469 14.339844 L 674.199219 21.835938 L 89.453125 39.0625 Z M 89.234375 31.566406 " clip-rule="nonzero"/></clipPath><clipPath id="id3"><path d="M 89 104 L 684 104 L 684 131 L 89 131 Z M 89 104 " clip-rule="nonzero"/></clipPath><clipPath id="id4"><path d="M 89.082031 121.851562 L 682.824219 104.359375 L 683.066406 112.605469 L 89.324219 130.097656 Z M 89.082031 121.851562 " clip-rule="nonzero"/></clipPath></defs><g clip-path="url(#id1)"><g clip-path="url(#id2)"><path fill="#ffffff" d="M 89.234375 31.566406 L 673.980469 14.339844 L 674.199219 21.835938 L 89.453125 39.0625 Z M 89.234375 31.566406 " fill-opacity="1" fill-rule="nonzero"/></g></g><g fill="#000000" fill-opacity="1"><g transform="translate(94.51796, 111.476462)"><g><path d="M 11.621094 -0.167969 L 12.320312 -0.273438 L 13.636719 -0.402344 L 14.425781 -0.511719 L 15.308594 -0.449219 L 15.550781 -1.25 L 15.796875 -1.875 L 15.851562 -2.933594 L 15.921875 -3.550781 L 15.90625 -4.078125 L 15.976562 -4.699219 L 16.03125 -5.84375 L 16.015625 -6.371094 L 16.175781 -6.992188 L 16.070312 -7.519531 L 16.296875 -8.757812 L 16.277344 -9.460938 L 16.4375 -9.996094 L 16.503906 -10.703125 L 16.804688 -12.558594 L 16.957031 -13.269531 L 16.902344 -15.117188 L 17.234375 -15.832031 L 17.375 -17.066406 L 17.359375 -17.597656 L 17.5 -18.832031 L 17.90625 -19.988281 L 17.859375 -21.484375 L 18.070312 -23.339844 L 18.136719 -24.046875 L 18.367188 -25.289062 L 18.527344 -25.820312 L 18.601562 -26.175781 L 19.222656 -26.105469 L 19.585938 -25.765625 L 19.957031 -25.070312 L 20.152344 -24.371094 L 20.527344 -23.679688 L 20.726562 -22.804688 L 21.027344 -21.578125 L 21.21875 -21.144531 L 21.339844 -19.914062 L 21.726562 -18.78125 L 21.9375 -17.644531 L 22.132812 -17.03125 L 22.515625 -15.988281 L 22.621094 -15.375 L 23.195312 -13.804688 L 23.226562 -12.75 L 23.605469 -11.878906 L 23.894531 -10.917969 L 24.003906 -10.304688 L 24.28125 -9.785156 L 24.300781 -9.171875 L 24.582031 -8.5625 L 24.792969 -7.421875 L 24.976562 -7.164062 L 25.261719 -6.46875 L 25.28125 -5.765625 L 25.847656 -4.460938 L 26.140625 -3.5 L 26.328125 -3.066406 L 26.625 -2.015625 L 26.8125 -1.582031 L 27.628906 -0.8125 L 28.160156 -0.742188 L 28.949219 -0.851562 L 29.652344 -0.875 L 30.617188 -0.988281 L 31.761719 -1.023438 L 34.042969 -1.355469 L 35.882812 -1.671875 L 37.023438 -1.707031 L 37.988281 -1.910156 L 38.425781 -2.011719 L 38.65625 -3.164062 L 37.992188 -4.816406 L 37.792969 -5.605469 L 37.683594 -6.21875 L 37.566406 -7.269531 L 36.90625 -8.75 L 36.695312 -9.976562 L 35.632812 -13.113281 L 35.421875 -14.253906 L 34.945312 -15.558594 L 34.929688 -16.089844 L 34.542969 -17.222656 L 34.347656 -17.921875 L 34.0625 -18.527344 L 33.851562 -19.753906 L 33.660156 -20.277344 L 33.363281 -21.414062 L 33.082031 -21.933594 L 32.875 -23.074219 L 32.765625 -23.773438 L 32.398438 -24.292969 L 32.1875 -25.429688 L 32.164062 -26.222656 L 31.683594 -27.527344 L 31.402344 -28.226562 L 31.378906 -29.015625 L 31.992188 -29.125 L 33.203125 -29.777344 L 34.929688 -30.972656 L 36.125 -32.328125 L 36.550781 -32.78125 L 37.484375 -33.953125 L 37.734375 -34.488281 L 38.402344 -35.652344 L 38.730469 -36.457031 L 38.976562 -37.078125 L 39.734375 -38.246094 L 40.144531 -39.316406 L 40.390625 -39.9375 L 40.550781 -40.472656 L 40.707031 -41.09375 L 41.03125 -42.160156 L 41.269531 -43.046875 L 41.402344 -44.460938 L 41.625 -45.875 L 41.605469 -46.492188 L 41.480469 -47.808594 L 41.550781 -48.425781 L 41.777344 -49.667969 L 41.757812 -50.371094 L 41.441406 -52.035156 L 41.425781 -52.652344 L 41.199219 -54.316406 L 40.894531 -55.71875 L 40.242188 -56.929688 L 39.59375 -57.96875 L 39.230469 -58.398438 L 38.773438 -58.914062 L 38.414062 -59.253906 L 37.339844 -59.839844 L 36.890625 -60.089844 L 36.355469 -60.339844 L 35.546875 -60.84375 L 34.925781 -61 L 34.125 -61.332031 L 33.144531 -61.742188 L 32.433594 -61.898438 L 31.027344 -61.855469 L 30.054688 -62.003906 L 28.730469 -62.050781 L 27.582031 -62.195312 L 26.789062 -62.171875 L 25.464844 -62.308594 L 24.753906 -62.464844 L 23.878906 -62.347656 L 23.265625 -62.242188 L 19.480469 -62.132812 L 14.199219 -62.0625 L 12.96875 -62.027344 L 12.09375 -61.824219 L 11.496094 -61.105469 L 11.160156 -60.652344 L 11.273438 -59.6875 L 10.945312 -58.972656 L 10.964844 -58.269531 L 10.894531 -57.652344 L 10.828125 -56.945312 L 10.546875 -54.472656 L 10.324219 -53.054688 L 10.09375 -51.992188 L 9.933594 -51.371094 L 9.949219 -50.84375 L 9.894531 -49.695312 L 9.910156 -49.167969 L 9.839844 -48.636719 L 9.613281 -47.398438 L 9.390625 -45.984375 L 9.160156 -44.742188 L 9.089844 -44.210938 L 9.039062 -42.976562 L 8.714844 -41.910156 L 8.644531 -41.382812 L 8.664062 -40.765625 L 8.589844 -40.234375 L 8.449219 -39.085938 L 8.378906 -38.46875 L 8.304688 -37.9375 L 8.324219 -37.320312 L 7.9375 -35.460938 L 7.957031 -34.757812 L 7.820312 -33.519531 L 7.675781 -32.371094 L 7.605469 -31.839844 L 7.457031 -30.867188 L 7.300781 -30.246094 L 7.316406 -29.71875 L 7.066406 -29.183594 L 6.910156 -28.5625 L 6.851562 -27.503906 L 6.953125 -26.976562 L 6.792969 -26.445312 L 6.371094 -25.816406 L 6.394531 -25.023438 L 6.328125 -24.316406 L 6.257812 -23.699219 L 5.945312 -22.457031 L 5.964844 -21.75 L 5.914062 -20.429688 L 5.765625 -19.542969 L 5.789062 -18.753906 L 5.394531 -17.15625 L 5.433594 -15.835938 L 5.101562 -15.121094 L 5.210938 -14.421875 L 5.140625 -13.800781 L 4.984375 -13.09375 L 4.933594 -11.859375 L 4.691406 -11.144531 L 4.796875 -10.53125 L 4.554688 -9.820312 L 4.574219 -9.207031 L 4.34375 -7.964844 L 4.273438 -7.347656 L 4.289062 -6.820312 L 4.042969 -6.195312 L 4.0625 -5.578125 L 3.902344 -5.046875 L 3.921875 -4.429688 L 3.859375 -3.460938 L 3.800781 -2.578125 L 3.5625 -1.691406 L 3.585938 -0.898438 L 3.777344 -0.375 L 4.574219 -0.222656 L 7.304688 -0.128906 L 8.449219 -0.160156 Z M 21.992188 -36.753906 L 20.488281 -36.886719 L 20.558594 -37.59375 L 20.449219 -38.207031 L 20.519531 -38.824219 L 20.742188 -40.242188 L 20.894531 -41.039062 L 20.785156 -41.828125 L 21.023438 -42.625 L 21.160156 -43.953125 L 21.144531 -44.566406 L 21.367188 -45.984375 L 21.523438 -46.691406 L 21.574219 -47.839844 L 21.625 -49.160156 L 21.757812 -50.574219 L 22.003906 -51.199219 L 22.242188 -52.171875 L 23.023438 -52.460938 L 25.140625 -52.433594 L 27.082031 -52.226562 L 27.886719 -51.8125 L 28.523438 -51.214844 L 28.984375 -50.433594 L 29.304688 -48.59375 L 29.449219 -46.660156 L 29.402344 -45.25 L 29.160156 -44.539062 L 29.179688 -43.835938 L 28.601562 -42.585938 L 28.527344 -42.054688 L 28.371094 -41.347656 L 27.964844 -40.1875 L 27.367188 -39.644531 L 27.027344 -39.105469 L 26.433594 -38.382812 L 25.828125 -38.011719 L 24.964844 -37.457031 L 24.445312 -37.089844 L 23.398438 -36.796875 Z M 21.992188 -36.753906 "/></g></g></g><g fill="#000000" fill-opacity="1"><g transform="translate(135.869207, 110.258278)"><g><path d="M 21.335938 0.78125 L 23.261719 0.460938 L 24.222656 0.167969 L 24.835938 0.0625 L 26.058594 -0.238281 L 26.757812 -0.4375 L 27.371094 -0.542969 L 29.371094 -1.394531 L 29.71875 -1.667969 L 30.753906 -2.402344 L 31.785156 -3.226562 L 32.210938 -3.765625 L 32.722656 -4.222656 L 33.75 -5.308594 L 33.910156 -5.84375 L 34.332031 -6.382812 L 34.671875 -6.921875 L 35.429688 -8.089844 L 35.851562 -8.71875 L 36.507812 -10.324219 L 37.085938 -11.574219 L 37.148438 -12.453125 L 37.570312 -13.082031 L 37.804688 -14.058594 L 37.789062 -14.675781 L 38.019531 -15.738281 L 38.433594 -16.71875 L 38.492188 -17.691406 L 38.742188 -18.226562 L 39.148438 -19.292969 L 39.046875 -19.820312 L 39.835938 -22.925781 L 40.082031 -23.460938 L 40.222656 -24.699219 L 40.378906 -25.320312 L 40.359375 -26.113281 L 40.574219 -27.703125 L 40.824219 -28.238281 L 41.054688 -29.390625 L 41.109375 -30.449219 L 41.339844 -31.601562 L 41.484375 -32.75 L 41.800781 -33.902344 L 41.683594 -34.957031 L 42.09375 -35.9375 L 41.980469 -36.816406 L 42.113281 -38.226562 L 42.273438 -38.847656 L 42.320312 -40.261719 L 42.367188 -41.582031 L 42.507812 -42.820312 L 42.578125 -43.351562 L 42.554688 -44.230469 L 42.449219 -44.84375 L 42.519531 -45.375 L 42.679688 -45.996094 L 42.730469 -47.140625 L 42.714844 -47.757812 L 42.59375 -48.898438 L 42.664062 -49.429688 L 42.71875 -50.574219 L 42.699219 -51.191406 L 42.59375 -51.890625 L 42.367188 -53.558594 L 42.0625 -54.871094 L 41.871094 -55.480469 L 41.679688 -56.003906 L 41.398438 -56.523438 L 40.835938 -57.652344 L 40.554688 -58.261719 L 40.101562 -58.777344 L 39.105469 -59.628906 L 38.113281 -60.390625 L 37.660156 -60.90625 L 36.941406 -61.324219 L 35.328125 -62.335938 L 33.988281 -62.910156 L 33.457031 -63.070312 L 32.75 -63.140625 L 32.039062 -63.382812 L 30.625 -63.515625 L 29.65625 -63.578125 L 29.125 -63.648438 L 27.539062 -63.691406 L 26.484375 -63.570312 L 25.253906 -63.445312 L 23.679688 -63.136719 L 22.800781 -63.023438 L 21.492188 -62.632812 L 20.96875 -62.527344 L 19.65625 -62.136719 L 18.617188 -61.578125 L 17.578125 -60.929688 L 16.976562 -60.472656 L 16.28125 -60.1875 L 15.160156 -59.363281 L 13.96875 -58.007812 L 13.542969 -57.464844 L 12.941406 -57.007812 L 12.265625 -55.929688 L 11.597656 -54.765625 L 11.261719 -54.226562 L 11.191406 -53.609375 L 10.433594 -52.441406 L 10.097656 -51.816406 L 9.601562 -50.746094 L 9.199219 -49.5 L 8.875 -48.433594 L 8.632812 -47.808594 L 8.136719 -46.648438 L 7.996094 -45.5 L 7.574219 -44.871094 L 7.285156 -42.664062 L 7.144531 -41.425781 L 7.074219 -40.894531 L 6.828125 -40.269531 L 6.683594 -39.210938 L 6.71875 -37.976562 L 6.5625 -37.355469 L 6.058594 -36.460938 L 6.164062 -35.9375 L 6.003906 -35.316406 L 6.019531 -34.789062 L 5.863281 -34.167969 L 5.613281 -33.628906 L 5.632812 -33.015625 L 5.398438 -31.949219 L 5.433594 -30.808594 L 5.199219 -29.742188 L 4.984375 -28.152344 L 4.824219 -27.53125 L 4.683594 -26.382812 L 4.871094 -25.945312 L 4.554688 -24.703125 L 4.574219 -24.089844 L 4.433594 -22.851562 L 4.457031 -22.148438 L 4.140625 -20.90625 L 4.019531 -18.964844 L 4.039062 -18.347656 L 4.148438 -17.648438 L 3.910156 -16.757812 L 3.957031 -15.085938 L 3.800781 -14.464844 L 4.117188 -12.714844 L 4.21875 -12.1875 L 4.34375 -10.960938 L 4.535156 -10.4375 L 4.640625 -9.824219 L 4.832031 -9.300781 L 5.023438 -8.867188 L 5.125 -8.339844 L 5.410156 -7.734375 L 5.425781 -7.203125 L 6.160156 -6.082031 L 6.621094 -5.480469 L 6.898438 -4.957031 L 7.351562 -4.53125 L 7.628906 -4.101562 L 8.902344 -2.726562 L 10.523438 -1.453125 L 11.78125 -0.699219 L 12.40625 -0.367188 L 13.738281 -0.0507812 L 14.441406 0.015625 L 16.484375 0.570312 L 17.28125 0.636719 L 17.898438 0.707031 L 19.039062 0.582031 Z M 20.277344 -11.164062 L 19.746094 -11.238281 L 19.039062 -11.394531 L 18.328125 -11.636719 L 17.875 -12.0625 L 17.324219 -12.839844 L 17.136719 -13.1875 L 16.855469 -13.792969 L 16.78125 -16.257812 L 16.5 -16.867188 L 16.824219 -17.757812 L 16.882812 -18.816406 L 16.601562 -19.421875 L 16.847656 -20.046875 L 16.828125 -20.664062 L 17.054688 -21.992188 L 17.03125 -22.695312 L 17.191406 -23.316406 L 17.167969 -24.019531 L 17.324219 -24.816406 L 17.222656 -25.164062 L 17.382812 -25.785156 L 17.273438 -26.488281 L 17.675781 -27.734375 L 17.921875 -28.355469 L 17.8125 -29.058594 L 17.882812 -29.675781 L 17.867188 -30.292969 L 18.003906 -31.53125 L 18.164062 -32.152344 L 18.472656 -33.570312 L 18.71875 -34.28125 L 18.855469 -35.605469 L 19.011719 -36.226562 L 19.082031 -36.84375 L 19.304688 -38.261719 L 19.53125 -39.5 L 19.847656 -40.742188 L 19.917969 -41.273438 L 20.148438 -42.511719 L 20.214844 -43.21875 L 20.210938 -43.394531 L 20.683594 -45.257812 L 20.839844 -45.96875 L 20.996094 -46.589844 L 21.492188 -47.75 L 21.824219 -48.375 L 22.144531 -49.441406 L 22.734375 -50.425781 L 23.589844 -51.246094 L 24.980469 -51.8125 L 25.679688 -52.011719 L 27.347656 -52.148438 L 28.773438 -51.574219 L 29.414062 -50.800781 L 29.78125 -50.28125 L 30.1875 -48.53125 L 30.046875 -47.296875 L 29.992188 -46.148438 L 29.863281 -44.558594 L 29.894531 -43.417969 L 29.742188 -42.621094 L 29.515625 -41.378906 L 29.359375 -40.671875 L 29.304688 -39.523438 L 29.414062 -38.910156 L 29.253906 -38.289062 L 29.097656 -37.582031 L 28.953125 -36.519531 L 28.640625 -35.1875 L 28.773438 -33.695312 L 28.523438 -33.160156 L 28.398438 -31.484375 L 28.15625 -30.773438 L 27.914062 -29.972656 L 27.796875 -27.941406 L 27.574219 -26.617188 L 27.332031 -25.816406 L 27.429688 -25.554688 L 27.449219 -24.851562 L 27.199219 -24.316406 L 27.132812 -23.609375 L 26.902344 -22.457031 L 26.65625 -21.832031 L 26.605469 -20.597656 L 26.363281 -19.886719 L 26.222656 -18.648438 L 26.066406 -18.027344 L 25.839844 -16.699219 L 25.859375 -15.996094 L 25.703125 -15.375 L 25.210938 -14.128906 L 24.632812 -12.878906 L 23.425781 -11.960938 L 22.644531 -11.585938 L 21.421875 -11.199219 Z M 20.277344 -11.164062 "/></g></g></g><g fill="#000000" fill-opacity="1"><g transform="translate(178.540176, 109.001215)"><g><path d="M 10.917969 -0.0585938 L 11.964844 -0.351562 L 19.621094 -0.578125 L 20.664062 -1.050781 L 20.824219 -1.582031 L 21.050781 -2.820312 L 21.191406 -4.058594 L 21.648438 -6.539062 L 22.03125 -8.488281 L 21.921875 -9.1875 L 22.148438 -10.429688 L 22.304688 -11.136719 L 22.691406 -12.996094 L 22.921875 -14.148438 L 22.992188 -14.769531 L 23.308594 -15.921875 L 23.53125 -17.335938 L 23.757812 -18.578125 L 23.652344 -19.191406 L 23.726562 -19.722656 L 23.796875 -20.339844 L 24.117188 -21.40625 L 24.1875 -22.023438 L 24.347656 -22.558594 L 24.417969 -23.089844 L 24.394531 -23.96875 L 24.546875 -24.765625 L 24.769531 -26.09375 L 25 -27.332031 L 24.984375 -27.859375 L 25.144531 -28.394531 L 25.195312 -29.628906 L 25.527344 -30.253906 L 25.761719 -31.316406 L 25.816406 -32.464844 L 25.796875 -33.082031 L 26.046875 -33.617188 L 26.273438 -34.855469 L 26.429688 -35.476562 L 26.570312 -36.800781 L 26.976562 -37.871094 L 26.960938 -38.484375 L 27.03125 -39.015625 L 27.089844 -40.074219 L 27.074219 -40.601562 L 27.390625 -41.757812 L 27.792969 -43.003906 L 27.605469 -43.4375 L 27.9375 -44.152344 L 28.242188 -45.746094 L 28.3125 -46.363281 L 28.453125 -47.511719 L 28.613281 -48.046875 L 28.597656 -48.574219 L 28.84375 -49.199219 L 28.742188 -49.722656 L 28.898438 -50.34375 L 29.6875 -50.457031 L 33.386719 -50.476562 L 34.265625 -50.503906 L 35.054688 -50.613281 L 36.113281 -50.644531 L 36.90625 -50.582031 L 37.785156 -50.695312 L 38.113281 -51.496094 L 38.164062 -52.730469 L 38.320312 -53.351562 L 38.640625 -54.507812 L 38.695312 -55.566406 L 38.769531 -56.09375 L 38.925781 -56.714844 L 39.074219 -57.777344 L 39.058594 -58.304688 L 39.214844 -58.925781 L 39.285156 -59.457031 L 39.269531 -60.074219 L 39.425781 -60.78125 L 39.492188 -61.402344 L 39.476562 -61.929688 L 39.28125 -62.628906 L 38.484375 -62.78125 L 37.25 -62.832031 L 31.792969 -62.671875 L 31 -62.734375 L 29.15625 -62.59375 L 27.832031 -62.640625 L 22.203125 -62.386719 L 20.269531 -62.332031 L 19.648438 -62.402344 L 13.136719 -62.210938 L 12.523438 -62.101562 L 11.910156 -62.085938 L 11.464844 -62.160156 L 9.179688 -62.09375 L 8.566406 -61.988281 L 7.792969 -61.347656 L 7.378906 -60.367188 L 7.308594 -59.835938 L 7.34375 -58.605469 L 7.097656 -58.066406 L 6.777344 -56.914062 L 6.726562 -55.679688 L 6.566406 -55.144531 L 6.25 -53.902344 L 6.355469 -53.289062 L 6.375 -52.585938 L 6.132812 -51.875 L 5.988281 -50.8125 L 6.277344 -50.03125 L 7.074219 -49.789062 L 7.78125 -49.808594 L 8.660156 -49.75 L 9.453125 -49.769531 L 10.066406 -49.878906 L 11.300781 -49.824219 L 16.054688 -49.964844 L 16.007812 -48.554688 L 15.871094 -47.230469 L 15.710938 -46.609375 L 15.480469 -45.457031 L 15.496094 -44.929688 L 15.425781 -44.3125 L 15.441406 -43.785156 L 15.371094 -43.253906 L 14.972656 -41.832031 L 14.8125 -41.210938 L 14.742188 -40.59375 L 14.765625 -39.886719 L 14.601562 -39.441406 L 14.628906 -38.5625 L 14.214844 -37.582031 L 14.324219 -36.96875 L 14.097656 -35.640625 L 13.9375 -35.109375 L 13.953125 -34.492188 L 13.617188 -33.953125 L 13.460938 -33.332031 L 13.484375 -32.542969 L 13.246094 -31.652344 L 13.28125 -30.421875 L 13.121094 -29.886719 L 12.714844 -28.820312 L 12.90625 -28.210938 L 12.75 -27.585938 L 12.4375 -26.257812 L 12.03125 -25.011719 L 11.875 -24.390625 L 11.804688 -23.773438 L 12.007812 -22.898438 L 11.59375 -22.003906 L 11.542969 -20.769531 L 11.378906 -20.238281 L 11.238281 -19.089844 L 11.167969 -18.46875 L 11.011719 -17.847656 L 10.785156 -16.523438 L 10.554688 -15.457031 L 10.574219 -14.753906 L 10.1875 -12.894531 L 10.296875 -12.191406 L 10.226562 -11.574219 L 9.824219 -10.328125 L 9.839844 -9.714844 L 9.789062 -8.476562 L 9.628906 -7.945312 L 9.582031 -6.621094 L 9.421875 -6 L 8.859375 -4.136719 L 8.828125 -2.285156 L 8.691406 -0.960938 L 9.503906 -0.28125 L 10.117188 -0.296875 Z M 10.917969 -0.0585938 "/></g></g></g><g fill="#000000" fill-opacity="1"><g transform="translate(212.852916, 107.990381)"><g><path d="M 12.148438 -0.183594 L 14.433594 -0.25 L 15.394531 -0.542969 L 15.636719 -1.339844 L 15.703125 -2.046875 L 15.933594 -3.199219 L 16.074219 -4.4375 L 16.304688 -5.589844 L 16.59375 -7.710938 L 16.828125 -8.6875 L 16.8125 -9.300781 L 16.953125 -10.449219 L 17.09375 -11.6875 L 17.320312 -12.925781 L 17.300781 -13.632812 L 17.617188 -14.785156 L 17.683594 -15.492188 L 17.910156 -16.820312 L 17.792969 -17.785156 L 18.207031 -18.679688 L 18.171875 -19.910156 L 18.246094 -20.351562 L 18.386719 -21.589844 L 18.367188 -22.292969 L 18.679688 -23.535156 L 18.660156 -24.238281 L 18.976562 -25.480469 L 19.121094 -26.542969 L 19.261719 -27.691406 L 19.492188 -28.84375 L 19.472656 -29.546875 L 19.71875 -30.171875 L 20.035156 -31.414062 L 20.394531 -34.066406 L 20.632812 -34.953125 L 20.777344 -36.101562 L 20.757812 -36.71875 L 20.824219 -37.425781 L 20.894531 -38.042969 L 20.871094 -38.835938 L 21.113281 -39.636719 L 21.339844 -40.875 L 21.414062 -41.316406 L 21.644531 -42.46875 L 21.878906 -43.53125 L 22.019531 -44.679688 L 22.089844 -45.300781 L 22.148438 -46.359375 L 22.21875 -46.976562 L 22.363281 -48.039062 L 22.523438 -48.570312 L 22.671875 -49.542969 L 23.042969 -51.84375 L 23.117188 -52.375 L 23.097656 -52.992188 L 23.167969 -53.523438 L 23.148438 -54.226562 L 23.476562 -55.027344 L 23.617188 -56.265625 L 23.867188 -56.714844 L 23.84375 -57.503906 L 24.097656 -57.863281 L 23.996094 -58.390625 L 24.054688 -59.359375 L 24.222656 -59.628906 L 24.1875 -60.773438 L 24.261719 -61.304688 L 23.882812 -62.171875 L 22.90625 -62.410156 L 22.292969 -62.304688 L 17.632812 -62.164062 L 17.019531 -62.058594 L 15.785156 -62.023438 L 14.992188 -62.085938 L 13.675781 -61.960938 L 13.0625 -61.855469 L 12.542969 -61.488281 L 11.933594 -61.203125 L 11.34375 -60.308594 L 11.273438 -59.6875 L 11.113281 -59.15625 L 10.976562 -57.832031 L 10.65625 -56.851562 L 10.507812 -55.878906 L 10.449219 -54.820312 L 10.289062 -54.289062 L 10.21875 -53.757812 L 9.988281 -52.605469 L 9.847656 -51.367188 L 9.683594 -50.921875 L 9.628906 -49.777344 L 9.5625 -49.070312 L 9.667969 -48.457031 L 9.351562 -47.300781 L 9.28125 -46.683594 L 9.050781 -45.53125 L 8.976562 -45 L 8.65625 -43.9375 L 8.761719 -43.324219 L 8.691406 -42.792969 L 8.550781 -41.554688 L 8.304688 -40.929688 L 8.339844 -39.699219 L 8.132812 -37.84375 L 7.726562 -36.597656 L 7.5 -35.445312 L 7.351562 -34.386719 L 7.386719 -33.242188 L 7.054688 -32.527344 L 6.917969 -31.289062 L 6.933594 -30.675781 L 6.617188 -29.433594 L 6.65625 -28.199219 L 6.515625 -26.964844 L 6.441406 -26.433594 L 6.371094 -25.816406 L 6.214844 -25.195312 L 6.230469 -24.664062 L 6.09375 -23.339844 L 5.535156 -21.386719 L 5.640625 -20.773438 L 5.484375 -20.152344 L 5.410156 -19.621094 L 5.253906 -19 L 5.269531 -18.386719 L 5.125 -17.324219 L 4.972656 -16.527344 L 4.734375 -15.726562 L 4.578125 -14.929688 L 4.34375 -13.953125 L 4.128906 -12.363281 L 4.230469 -11.835938 L 3.914062 -10.683594 L 3.84375 -10.066406 L 3.6875 -9.355469 L 3.617188 -8.738281 L 3.390625 -7.410156 L 3.324219 -6.703125 L 3.183594 -5.464844 L 3.027344 -4.84375 L 2.980469 -3.523438 L 2.574219 -2.277344 L 2.703125 -0.960938 L 3.421875 -0.363281 L 4.132812 -0.210938 L 4.835938 -0.320312 L 5.453125 -0.25 L 6.421875 -0.1875 L 7.035156 -0.296875 L 7.742188 -0.316406 L 8.976562 -0.175781 L 11.527344 -0.25 Z M 12.148438 -0.183594 "/></g></g></g><g fill="#000000" fill-opacity="1"><g transform="translate(235.992019, 107.308717)"><g><path d="M 4.492188 0.0429688 L 13.820312 -0.230469 L 14.777344 -0.613281 L 15.015625 -1.5 L 15.335938 -2.566406 L 15.554688 -4.15625 L 15.714844 -4.691406 L 15.679688 -5.832031 L 15.75 -6.453125 L 15.980469 -7.605469 L 16.257812 -10.167969 L 16.414062 -10.789062 L 16.488281 -11.316406 L 16.625 -12.554688 L 16.925781 -14.324219 L 17.238281 -15.65625 L 17.378906 -16.890625 L 17.453125 -17.421875 L 17.347656 -18.035156 L 17.503906 -18.65625 L 17.738281 -19.722656 L 17.542969 -20.332031 L 17.773438 -21.484375 L 17.933594 -22.015625 L 18.183594 -25.457031 L 18.675781 -29.699219 L 18.699219 -31.902344 L 18.832031 -33.402344 L 18.890625 -34.375 L 18.925781 -36.136719 L 18.941406 -38.601562 L 19.207031 -38.609375 L 19.832031 -35.28125 L 20.453125 -32.128906 L 20.789062 -29.675781 L 21.3125 -26.871094 L 21.738281 -24.417969 L 21.960938 -22.75 L 22.367188 -21.003906 L 22.40625 -19.683594 L 22.507812 -19.15625 L 22.808594 -17.933594 L 22.914062 -17.40625 L 23.214844 -16.183594 L 23.226562 -15.65625 L 23.53125 -14.34375 L 23.824219 -13.382812 L 23.949219 -12.066406 L 24.164062 -10.839844 L 24.265625 -10.3125 L 24.671875 -8.476562 L 24.777344 -7.953125 L 25.007812 -6.109375 L 25.109375 -5.582031 L 25.230469 -4.53125 L 25.332031 -4.09375 L 25.808594 -2.875 L 26.550781 -1.488281 L 27.273438 -0.890625 L 28.769531 -0.9375 L 29.917969 -0.882812 L 31.675781 -0.933594 L 32.203125 -1.035156 L 33.085938 -0.976562 L 33.699219 -1.082031 L 35.371094 -1.042969 L 35.722656 -1.050781 L 36.6875 -1.257812 L 37.914062 -1.382812 L 38.777344 -2.023438 L 39.539062 -3.101562 L 39.894531 -5.929688 L 40.125 -7.082031 L 40.285156 -7.703125 L 40.269531 -8.230469 L 40.675781 -9.386719 L 40.632812 -10.796875 L 40.949219 -12.039062 L 41.191406 -12.75 L 41.332031 -13.898438 L 41.386719 -15.046875 L 41.449219 -16.015625 L 41.769531 -17.082031 L 42.097656 -17.882812 L 42.246094 -18.769531 L 42.386719 -20.007812 L 42.703125 -21.25 L 42.6875 -21.777344 L 42.757812 -22.308594 L 42.828125 -22.925781 L 42.902344 -23.457031 L 42.964844 -24.25 L 43.117188 -25.046875 L 43.347656 -26.289062 L 43.59375 -26.824219 L 43.5625 -27.96875 L 43.632812 -28.496094 L 43.703125 -29.117188 L 43.863281 -29.648438 L 43.933594 -30.269531 L 44.09375 -30.800781 L 43.984375 -31.589844 L 44.136719 -32.300781 L 44.277344 -33.535156 L 44.507812 -34.6875 L 44.664062 -35.308594 L 44.894531 -36.460938 L 45.050781 -37.171875 L 45.121094 -37.789062 L 45.179688 -38.757812 L 45.421875 -39.558594 L 45.695312 -42.207031 L 45.851562 -42.828125 L 45.820312 -43.972656 L 45.976562 -44.59375 L 46.132812 -45.304688 L 46.375 -46.101562 L 46.507812 -47.515625 L 46.820312 -48.933594 L 47.027344 -50.789062 L 47.183594 -51.5 L 47.402344 -53.089844 L 47.636719 -54.066406 L 48.101562 -56.195312 L 48.242188 -57.429688 L 48.449219 -59.375 L 48.339844 -60.074219 L 48.566406 -61.316406 L 48.546875 -62.019531 L 48.4375 -62.71875 L 47.902344 -62.96875 L 46.664062 -63.195312 L 45.433594 -63.074219 L 44.554688 -63.046875 L 42.527344 -63.074219 L 41.648438 -63.050781 L 41.035156 -62.941406 L 39.179688 -63.0625 L 37.519531 -62.664062 L 37.175781 -62.390625 L 36.507812 -61.136719 L 36.210938 -59.277344 L 35.988281 -57.863281 L 35.914062 -57.332031 L 35.9375 -56.539062 L 35.695312 -55.828125 L 35.539062 -55.207031 L 35.308594 -53.96875 L 35.242188 -53.261719 L 35.101562 -52.023438 L 34.941406 -51.492188 L 34.871094 -50.871094 L 34.640625 -49.722656 L 34.65625 -49.191406 L 34.441406 -47.601562 L 34.546875 -46.988281 L 34.050781 -45.917969 L 34.066406 -45.300781 L 34.011719 -44.242188 L 34.042969 -43.1875 L 33.722656 -42.03125 L 33.738281 -41.503906 L 33.601562 -40.265625 L 33.4375 -39.734375 L 33.386719 -38.5 L 33.320312 -37.792969 L 33.25 -37.175781 L 33.179688 -36.644531 L 32.949219 -35.40625 L 33.039062 -32.414062 L 32.828125 -30.558594 L 32.6875 -26.324219 L 32.726562 -25.09375 L 32.613281 -22.976562 L 32.574219 -21.214844 L 32.3125 -21.207031 L 31.992188 -23.136719 L 31.65625 -25.503906 L 31.449219 -26.554688 L 31.253906 -27.164062 L 31.238281 -27.78125 L 31.003906 -29.710938 L 30.59375 -31.722656 L 30.257812 -34.09375 L 30.0625 -34.789062 L 29.851562 -36.015625 L 29.71875 -37.421875 L 29.414062 -38.910156 L 29.191406 -40.402344 L 28.890625 -41.714844 L 28.773438 -42.679688 L 28.753906 -43.292969 L 28.460938 -44.253906 L 28.445312 -44.78125 L 28.148438 -45.917969 L 27.933594 -47.234375 L 27.828125 -47.847656 L 27.632812 -48.546875 L 27.226562 -50.296875 L 26.925781 -51.519531 L 26.621094 -53.007812 L 26.3125 -54.40625 L 25.898438 -56.507812 L 25.511719 -57.730469 L 25.394531 -58.695312 L 25.1875 -59.746094 L 24.808594 -60.617188 L 24.703125 -61.230469 L 24.152344 -62.003906 L 23.175781 -62.242188 L 21.945312 -62.203125 L 20.621094 -62.253906 L 19.570312 -62.132812 L 17.894531 -62.171875 L 16.753906 -62.050781 L 15.960938 -62.027344 L 14.464844 -62.070312 L 13.234375 -61.949219 L 12.359375 -61.746094 L 11.859375 -60.761719 L 11.609375 -60.316406 L 11.449219 -59.78125 L 11.21875 -58.628906 L 11.238281 -57.925781 L 11.007812 -56.773438 L 10.863281 -55.714844 L 10.722656 -54.5625 L 10.652344 -53.945312 L 10.492188 -53.414062 L 10.421875 -52.792969 L 10.347656 -52.261719 L 10.28125 -51.644531 L 10.226562 -50.5 L 10.074219 -49.703125 L 9.742188 -48.898438 L 9.761719 -48.285156 L 9.394531 -45.808594 L 9.234375 -45.273438 L 9.164062 -44.65625 L 9.195312 -43.597656 L 8.953125 -42.800781 L 8.71875 -41.824219 L 8.578125 -40.675781 L 8.417969 -40.054688 L 8.4375 -39.4375 L 8.191406 -38.8125 L 8.210938 -38.109375 L 7.96875 -37.398438 L 7.902344 -36.691406 L 7.9375 -35.460938 L 7.789062 -34.574219 L 7.632812 -33.867188 L 7.222656 -32.796875 L 7.160156 -31.914062 L 7.109375 -30.679688 L 7.039062 -30.0625 L 6.96875 -29.53125 L 6.558594 -28.460938 L 6.574219 -27.933594 L 6.503906 -27.402344 L 6.449219 -26.257812 L 6.289062 -25.722656 L 6.21875 -25.105469 L 6.074219 -24.042969 L 5.835938 -23.070312 L 5.683594 -22.273438 L 5.539062 -21.210938 L 5.230469 -19.792969 L 5.085938 -18.644531 L 5.191406 -18.03125 L 5.121094 -17.5 L 4.886719 -16.4375 L 4.816406 -15.816406 L 4.761719 -14.757812 L 4.425781 -14.132812 L 4.460938 -12.988281 L 4.304688 -12.28125 L 4.324219 -11.664062 L 4.101562 -10.25 L 3.949219 -9.453125 L 3.722656 -8.210938 L 3.558594 -7.765625 L 3.332031 -6.527344 L 3.261719 -5.910156 L 2.945312 -4.667969 L 2.808594 -3.253906 L 2.851562 -1.84375 L 2.695312 -1.136719 L 3.167969 -0.09375 Z M 4.492188 0.0429688 "/></g></g></g><g fill="#000000" fill-opacity="1"><g transform="translate(283.413977, 105.911693)"><g><path d="M 7.132812 -0.0351562 L 7.832031 -0.144531 L 10.300781 -0.128906 L 10.816406 -0.496094 L 11.152344 -1.121094 L 11.402344 -1.570312 L 11.636719 -2.542969 L 12.125 -3.878906 L 12.957031 -5.578125 L 13.277344 -6.644531 L 13.523438 -7.265625 L 13.683594 -7.886719 L 14.265625 -9.050781 L 14.675781 -10.03125 L 17.050781 -10.101562 L 20.925781 -10.128906 L 22.339844 -9.992188 L 24.277344 -9.960938 L 24.386719 -9.261719 L 24.507812 -5.125 L 24.445312 -4.242188 L 24.558594 -3.367188 L 24.695312 -1.785156 L 24.894531 -0.910156 L 25.253906 -0.65625 L 26.574219 -0.695312 L 27.722656 -0.640625 L 28.597656 -0.753906 L 29.210938 -0.859375 L 30.269531 -0.804688 L 30.976562 -0.824219 L 32.90625 -0.96875 L 34.140625 -1.003906 L 34.847656 -0.9375 L 35.460938 -1.042969 C 35.8125 -1.054688 36.078125 -0.976562 36.425781 -1.074219 C 36.859375 -1.351562 36.75 -2.140625 36.648438 -2.488281 L 36.59375 -4.335938 L 36.449219 -6.269531 L 36.425781 -7.0625 L 36.320312 -7.761719 L 36.371094 -8.996094 L 36.332031 -10.316406 L 36.226562 -10.929688 L 36.105469 -12.070312 L 36.089844 -12.601562 L 35.8125 -15.9375 L 35.882812 -16.558594 L 35.757812 -17.785156 L 35.808594 -19.109375 L 35.679688 -20.425781 L 35.664062 -21.042969 L 35.457031 -25.085938 L 35.378906 -27.726562 L 35.269531 -28.425781 L 35.148438 -29.480469 L 35.050781 -32.914062 L 34.84375 -33.875 L 34.714844 -35.28125 L 34.699219 -35.808594 L 34.578125 -36.949219 L 34.652344 -37.480469 L 34.527344 -38.710938 L 34.472656 -40.46875 L 34.261719 -41.695312 L 34.207031 -43.632812 L 34.273438 -44.25 L 34.148438 -45.566406 L 34.113281 -46.800781 L 33.882812 -48.554688 L 33.761719 -49.695312 L 33.726562 -50.925781 L 33.542969 -54.09375 L 33.496094 -55.675781 L 33.304688 -56.199219 L 33.25 -58.132812 L 32.875 -61.910156 L 32.246094 -62.332031 L 31.800781 -62.496094 L 30.390625 -62.453125 L 29.601562 -62.34375 L 28.980469 -62.5 L 28.191406 -62.476562 L 26.519531 -62.339844 L 25.113281 -62.296875 L 24.234375 -62.183594 L 22.5625 -62.222656 L 21.679688 -62.195312 L 21.066406 -62.089844 L 20.746094 -61.113281 L 20.496094 -60.578125 L 20.25 -59.953125 L 19.503906 -58.34375 L 18.921875 -57.183594 L 18.441406 -55.585938 L 18.277344 -55.140625 L 17.941406 -54.601562 L 17.441406 -53.617188 L 17.285156 -52.996094 L 17.125 -52.464844 L 16.875 -51.925781 L 16.71875 -51.304688 L 15.972656 -49.699219 L 15.726562 -49.074219 L 15.488281 -48.1875 L 14.984375 -47.378906 L 14.734375 -46.84375 L 14.328125 -45.6875 L 13.679688 -43.820312 L 13.34375 -43.28125 L 12.921875 -42.652344 L 12.695312 -41.414062 L 12.199219 -40.253906 L 12.039062 -39.808594 L 11.808594 -38.65625 L 11.386719 -38.027344 L 11.15625 -36.875 L 10.90625 -36.339844 L 10.40625 -35.355469 L 10.011719 -33.847656 L 9.429688 -32.6875 L 9.1875 -31.972656 L 8.554688 -29.488281 L 8.304688 -28.953125 L 7.902344 -27.710938 L 7.652344 -27.171875 L 7.40625 -26.550781 L 7.335938 -26.019531 L 6.84375 -24.773438 L 6.6875 -24.152344 L 6.1875 -23.078125 L 5.769531 -22.363281 L 5.617188 -21.566406 L 5.460938 -20.945312 L 4.878906 -19.695312 L 4.632812 -19.070312 L 4.226562 -17.914062 L 3.980469 -17.378906 L 3.910156 -16.757812 L 3.75 -16.226562 L 3.339844 -15.15625 L 2.917969 -14.527344 L 2.757812 -13.996094 L 2.101562 -12.390625 L 1.78125 -11.238281 L 0.875 -9.097656 L 0.46875 -8.027344 L -0.0273438 -6.957031 L -0.832031 -4.289062 L -1.5 -3.125 L -1.996094 -2.054688 L -2.070312 -1.523438 L -2.226562 -0.902344 L -2.03125 -0.203125 L -1.234375 -0.0507812 L 5.191406 -0.152344 L 5.808594 -0.0820312 Z M 21.027344 -21.667969 L 20.230469 -21.730469 L 19.261719 -21.792969 L 18.558594 -21.769531 L 17.925781 -22.28125 L 18.171875 -22.902344 L 18.324219 -23.699219 L 18.480469 -24.320312 L 18.878906 -25.832031 L 19.210938 -26.457031 L 19.613281 -27.789062 L 19.683594 -28.410156 L 20.152344 -30.359375 L 20.394531 -31.160156 L 20.640625 -31.785156 L 20.878906 -32.582031 L 21.214844 -33.210938 L 21.285156 -33.828125 L 21.609375 -34.71875 L 21.941406 -35.433594 L 22.339844 -36.851562 L 22.578125 -37.742188 L 22.976562 -39.160156 L 23.292969 -40.316406 L 23.992188 -40.601562 L 24.136719 -38.578125 L 24.144531 -35.410156 L 24.152344 -32.0625 L 24.304688 -29.953125 L 24.148438 -29.246094 L 24.191406 -27.75 L 24.125 -27.128906 L 24.191406 -24.84375 L 24.125 -24.136719 L 24.230469 -23.433594 L 24.179688 -22.199219 L 23.664062 -21.746094 Z M 21.027344 -21.667969 "/></g></g></g><g fill="#ff1616" fill-opacity="1"><g transform="translate(322.653344, 104.755723)"><g/></g></g><g fill="#ff1616" fill-opacity="1"><g transform="translate(342.361178, 104.175142)"><g><path d="M 12.9375 -0.292969 L 13.636719 -0.402344 L 15.042969 -0.53125 L 16.890625 -0.585938 L 17.417969 -0.6875 L 18.5625 -0.636719 L 19.96875 -0.765625 L 28.328125 -1.011719 L 28.5625 -1.984375 L 28.714844 -2.785156 L 28.757812 -4.28125 L 28.984375 -5.609375 L 29.054688 -6.226562 L 29.214844 -6.761719 L 29.371094 -7.382812 L 29.339844 -8.527344 L 29.632812 -10.472656 L 29.699219 -11.179688 L 29.847656 -12.152344 L 29.925781 -12.507812 L 29.992188 -13.210938 L 29.371094 -13.457031 L 26.910156 -13.296875 L 24.96875 -13.328125 L 23.734375 -13.378906 L 18.542969 -13.226562 L 17.308594 -13.367188 L 16.945312 -13.710938 L 16.925781 -14.414062 L 17.207031 -16.710938 L 17.425781 -18.300781 L 17.585938 -18.921875 L 17.644531 -19.804688 L 17.796875 -20.601562 L 18.035156 -21.492188 L 18.316406 -23.964844 L 18.546875 -25.117188 L 18.871094 -26.09375 L 19.660156 -26.117188 L 20.804688 -26.238281 L 21.769531 -26.269531 L 23.269531 -26.222656 L 25.464844 -26.378906 L 26.257812 -26.402344 L 27.574219 -26.527344 L 28.457031 -26.554688 L 28.625 -26.734375 L 28.765625 -27.972656 L 28.988281 -29.386719 L 29.128906 -30.625 L 29.371094 -31.335938 L 29.351562 -31.953125 L 29.578125 -33.28125 L 29.734375 -33.902344 L 29.964844 -35.140625 L 30.113281 -36.113281 L 30.089844 -36.816406 L 30.234375 -37.878906 L 29.6875 -38.566406 L 28.976562 -38.722656 L 26.691406 -38.65625 L 25.023438 -38.429688 L 21.941406 -38.425781 L 20.355469 -38.378906 L 20.488281 -39.96875 L 20.726562 -40.855469 L 20.617188 -41.558594 L 20.773438 -42.179688 L 21 -43.417969 L 21.140625 -44.65625 L 21.355469 -46.335938 L 21.335938 -47.039062 L 21.582031 -47.574219 L 21.546875 -48.808594 L 21.617188 -49.425781 L 21.851562 -50.488281 L 23.960938 -50.640625 L 29.679688 -50.808594 L 30.730469 -50.925781 L 34.425781 -51.035156 L 35.304688 -51.148438 L 35.535156 -52.300781 L 35.605469 -52.832031 L 35.921875 -54.074219 L 35.902344 -54.777344 L 36.128906 -56.105469 L 36.199219 -56.636719 L 36.269531 -57.253906 L 36.515625 -57.878906 L 36.5 -58.40625 L 36.609375 -60.609375 L 36.59375 -61.140625 L 36.832031 -62.113281 L 36.371094 -62.71875 L 35.578125 -62.78125 L 34.695312 -62.84375 L 33.90625 -62.734375 L 31.972656 -62.675781 L 29.421875 -62.511719 L 28.714844 -62.578125 L 26.6875 -62.609375 L 20.09375 -62.324219 L 18.160156 -62.179688 L 17.277344 -62.15625 L 16.574219 -62.222656 L 15.957031 -62.203125 L 14.902344 -62.085938 L 14.285156 -62.15625 L 13.757812 -62.050781 L 12.265625 -62.007812 L 11.574219 -61.457031 L 11.503906 -60.929688 L 11.253906 -60.390625 L 11.023438 -59.328125 L 11.214844 -58.71875 L 11.144531 -58.1875 L 11.089844 -57.039062 L 11.015625 -56.511719 L 10.855469 -55.976562 L 10.800781 -54.832031 L 10.644531 -54.210938 L 10.746094 -53.683594 L 10.5 -53.0625 L 10.519531 -52.445312 L 10.273438 -51.910156 L 10.132812 -50.671875 L 9.8125 -49.519531 L 9.742188 -48.898438 L 9.847656 -48.375 L 9.777344 -47.753906 L 9.621094 -47.046875 L 9.285156 -46.507812 L 9.253906 -44.65625 L 9.007812 -44.035156 L 8.992188 -41.566406 L 8.679688 -40.238281 L 8.449219 -38.996094 L 8.554688 -38.472656 L 8.394531 -37.851562 L 8.152344 -37.140625 L 7.703125 -34.484375 L 7.367188 -33.945312 L 7.382812 -33.332031 L 7.316406 -32.710938 L 7.246094 -32.003906 L 7 -31.382812 L 6.863281 -30.054688 L 6.546875 -28.8125 L 6.585938 -27.496094 L 6.289062 -25.636719 L 6.132812 -25.015625 L 5.90625 -23.6875 L 5.835938 -23.070312 L 5.589844 -22.445312 L 5.359375 -21.292969 L 5.464844 -20.769531 L 5.144531 -19.703125 L 5.15625 -19.261719 L 5.015625 -18.113281 L 4.859375 -17.402344 L 4.878906 -16.789062 L 4.742188 -15.375 L 4.410156 -14.660156 L 4.269531 -13.511719 L 4.21875 -12.277344 L 4.148438 -11.660156 L 3.992188 -10.949219 L 4.011719 -10.332031 L 3.851562 -9.710938 L 3.875 -8.921875 L 3.632812 -8.210938 L 3.585938 -6.796875 L 3.273438 -5.46875 L 3.140625 -4.054688 L 3 -2.730469 L 2.847656 -1.933594 L 2.609375 -1.132812 L 2.894531 -0.347656 L 3.691406 -0.195312 L 8.355469 -0.335938 L 8.976562 -0.265625 L 11.261719 -0.332031 Z M 12.9375 -0.292969 "/></g></g></g><g fill="#ff1616" fill-opacity="1"><g transform="translate(375.530154, 103.198002)"><g><path d="M 25.523438 -0.488281 L 26.925781 -0.707031 L 28.949219 -0.765625 L 32.292969 -0.953125 L 33.789062 -0.90625 L 34.402344 -1.011719 L 35.546875 -1.046875 L 36.6875 -1.257812 L 37.289062 -1.714844 L 36.894531 -3.199219 L 36.699219 -3.8125 L 36.242188 -4.414062 L 36.046875 -5.023438 L 35.828125 -6.425781 L 35.441406 -7.648438 L 35.160156 -8.167969 L 34.960938 -8.957031 L 34.847656 -9.921875 L 34.742188 -10.445312 L 34.179688 -11.574219 L 34.164062 -12.101562 L 33.972656 -12.714844 L 33.585938 -13.847656 L 33.394531 -14.371094 L 33.199219 -14.980469 L 32.808594 -16.289062 L 32.226562 -18.121094 L 32.035156 -18.644531 L 31.835938 -19.433594 L 31.449219 -20.652344 L 31.148438 -21.878906 L 30.863281 -22.574219 L 30.566406 -23.710938 L 30.367188 -24.40625 L 30.082031 -25.105469 L 29.976562 -25.71875 L 29.867188 -26.417969 L 29.484375 -27.550781 L 29.375 -28.164062 L 29.074219 -29.476562 L 28.679688 -30.964844 L 28.472656 -31.925781 L 28.539062 -32.632812 L 29.300781 -33.710938 L 29.964844 -35.140625 L 30.300781 -35.679688 L 31.21875 -37.378906 L 32.226562 -38.992188 L 32.730469 -39.890625 L 33.140625 -40.871094 L 33.394531 -41.316406 L 33.980469 -42.304688 L 34.902344 -43.917969 L 35.3125 -44.898438 L 35.898438 -45.882812 L 36.054688 -46.679688 L 36.640625 -47.667969 L 36.972656 -48.292969 L 37.3125 -48.742188 L 37.820312 -49.460938 L 38.234375 -50.355469 L 38.734375 -51.25 L 39.0625 -52.140625 L 39.308594 -52.765625 L 39.910156 -53.222656 L 40.152344 -54.023438 L 40.398438 -54.558594 L 40.652344 -54.917969 L 41.238281 -55.992188 L 41.648438 -57.0625 L 41.898438 -57.507812 L 42.40625 -58.140625 L 42.65625 -58.675781 L 42.816406 -59.207031 L 43.152344 -59.835938 L 43.3125 -60.367188 L 43.46875 -60.988281 L 43.96875 -61.972656 L 43.863281 -62.585938 L 43.324219 -62.921875 L 41.476562 -62.867188 L 41.042969 -62.679688 L 40.421875 -62.835938 L 38.753906 -62.613281 L 38.136719 -62.59375 L 37.164062 -62.742188 L 36.203125 -62.535156 L 35.492188 -62.691406 L 33.027344 -62.617188 L 31.808594 -62.230469 L 31.46875 -61.78125 L 31.21875 -61.332031 L 30.808594 -60.265625 L 30.386719 -59.636719 L 30.316406 -59.015625 L 30.070312 -58.480469 L 29.734375 -57.941406 L 29.574219 -57.320312 L 29.238281 -56.78125 L 28.832031 -55.625 L 28.582031 -55.089844 L 28.246094 -54.550781 L 28.085938 -54.105469 L 27.746094 -53.570312 L 25.675781 -49.105469 L 25.351562 -48.214844 L 25.011719 -47.765625 L 24.851562 -47.230469 L 24.175781 -46.242188 L 23.683594 -44.996094 L 23.277344 -43.925781 L 23.109375 -43.65625 L 22.84375 -43.648438 L 22.628906 -44.964844 L 22.34375 -45.746094 L 22.128906 -47.0625 L 21.84375 -47.757812 L 21.636719 -48.722656 L 21.4375 -49.597656 L 21.230469 -50.558594 L 20.863281 -51.164062 L 20.664062 -51.863281 L 20.558594 -52.476562 L 20.34375 -53.789062 L 19.972656 -54.484375 L 19.867188 -55.011719 L 19.476562 -56.320312 L 19.460938 -56.847656 L 19.265625 -57.457031 L 19.164062 -57.984375 L 18.773438 -59.292969 L 18.492188 -59.902344 L 18.285156 -60.953125 L 18.085938 -61.738281 L 17.636719 -61.988281 L 16.582031 -61.957031 L 15.960938 -62.027344 L 14.730469 -61.992188 L 13.941406 -61.878906 L 13.054688 -62.03125 L 11.824219 -61.996094 L 10.769531 -61.875 L 6.8125 -61.757812 L 6.109375 -61.648438 L 5.429688 -60.835938 L 5.445312 -60.308594 L 5.550781 -59.695312 L 5.835938 -59 L 6.117188 -58.390625 L 6.507812 -57.082031 L 6.703125 -56.472656 L 7.265625 -55.253906 L 7.65625 -54.035156 L 8.039062 -52.898438 L 8.230469 -52.378906 L 8.53125 -51.242188 L 8.722656 -50.71875 L 9.285156 -49.503906 L 9.480469 -48.804688 L 9.765625 -48.195312 L 9.960938 -47.496094 L 10.347656 -46.273438 L 10.632812 -45.667969 L 10.828125 -44.96875 L 11.214844 -43.746094 L 11.589844 -43.054688 L 11.871094 -42.445312 L 12.171875 -41.222656 L 12.273438 -40.695312 L 12.75 -39.476562 L 12.964844 -38.164062 L 13.25 -37.554688 L 13.726562 -36.246094 L 13.832031 -35.632812 L 14.117188 -35.027344 L 14.59375 -33.71875 L 13.839844 -32.464844 L 13.433594 -31.308594 L 13.179688 -30.859375 L 12.933594 -30.324219 L 12.683594 -29.875 L 12.007812 -28.886719 L 11.847656 -28.355469 L 11.511719 -27.816406 L 11.257812 -27.367188 L 10.511719 -25.761719 L 10.269531 -25.136719 L 9.929688 -24.597656 L 9.683594 -24.0625 L 9.1875 -22.902344 L 8.855469 -22.277344 L 8.515625 -21.828125 L 7.84375 -20.75 L 7.257812 -19.675781 L 6.917969 -19.226562 L 6.671875 -18.691406 L 6.511719 -18.15625 L 6.085938 -17.617188 L 5.929688 -16.996094 L 5.519531 -15.925781 L 5.269531 -15.390625 L 4.523438 -13.871094 L 4.011719 -13.328125 L 3.847656 -12.882812 L 3.511719 -12.34375 L 3.1875 -11.367188 L 2.9375 -10.832031 L 2.777344 -10.296875 L 2.195312 -9.222656 L 1.945312 -8.6875 L 1.609375 -8.148438 L 1.359375 -7.613281 L 0.863281 -6.628906 L 0.613281 -6.09375 L -0.386719 -4.128906 L -0.792969 -3.058594 L -1.464844 -1.894531 L -1.59375 -0.304688 L -0.617188 0.0195312 L 0.96875 -0.0273438 L 2.375 -0.15625 L 3.695312 -0.109375 L 5.101562 -0.148438 L 5.984375 -0.0898438 L 8.007812 -0.148438 L 9.238281 -0.273438 L 10.203125 -0.390625 L 10.707031 -1.195312 L 11.039062 -2 L 11.375 -2.535156 L 11.867188 -3.695312 L 12.109375 -4.40625 L 12.363281 -4.855469 L 12.859375 -5.925781 L 13.019531 -6.460938 L 13.515625 -7.53125 L 13.761719 -8.15625 L 14.347656 -9.230469 L 14.59375 -9.851562 L 15.175781 -10.925781 L 15.425781 -11.460938 L 15.671875 -12.085938 L 16.929688 -14.238281 L 17.179688 -14.683594 L 17.515625 -15.222656 L 17.59375 -15.664062 L 17.929688 -16.203125 L 18.511719 -17.277344 L 19.175781 -18.707031 L 19.511719 -19.246094 L 19.773438 -19.339844 L 20.15625 -18.296875 L 20.355469 -17.507812 L 20.65625 -16.285156 L 20.9375 -15.675781 L 21.050781 -14.886719 L 21.34375 -13.839844 L 21.535156 -13.316406 L 21.746094 -12.175781 L 22.328125 -10.34375 L 22.625 -9.207031 L 22.925781 -7.984375 L 23.316406 -6.675781 L 23.625 -5.1875 L 23.90625 -4.578125 L 24.015625 -3.878906 L 24.136719 -2.824219 L 24.332031 -2.125 L 24.609375 -1.695312 L 24.710938 -1.257812 L 24.992188 -0.648438 Z M 25.523438 -0.488281 "/></g></g></g><g fill="#ff1616" fill-opacity="1"><g transform="translate(415.385713, 102.02388)"><g><path d="M 19.300781 0.488281 L 20.175781 0.285156 L 21.316406 0.164062 L 22.636719 0.125 L 23.773438 -0.171875 L 24.824219 -0.378906 L 25.871094 -0.675781 L 28.144531 -1.269531 L 28.75 -1.550781 L 30.132812 -2.472656 L 31.417969 -3.65625 L 32.691406 -5.277344 L 32.851562 -5.8125 L 33.101562 -6.347656 L 33.527344 -6.886719 L 33.863281 -7.425781 L 34.109375 -8.050781 L 34.515625 -9.117188 L 35.003906 -10.542969 L 35.253906 -11.078125 L 35.410156 -11.699219 L 35.480469 -12.316406 L 35.710938 -13.382812 L 36.175781 -15.597656 L 36.335938 -16.128906 L 36.546875 -17.984375 L 36.625 -18.339844 L 36.691406 -18.957031 L 36.855469 -19.402344 L 36.914062 -20.375 L 37.058594 -21.523438 L 37.039062 -22.140625 L 37.199219 -22.671875 L 37.171875 -23.640625 L 36.800781 -24.246094 L 36.167969 -24.84375 L 35.109375 -24.898438 L 30.789062 -25.035156 L 28.941406 -24.984375 L 26.652344 -25.003906 L 25.949219 -24.894531 L 25.355469 -24.171875 L 25.207031 -23.289062 L 24.800781 -22.128906 L 24.730469 -21.511719 L 24.578125 -20.714844 L 24.351562 -19.386719 L 24.117188 -18.324219 L 24.042969 -17.882812 L 23.972656 -17.351562 L 23.652344 -16.195312 L 23.25 -14.953125 L 22.59375 -13.347656 L 22.253906 -12.898438 L 21.042969 -12.070312 L 19.722656 -12.03125 L 18.320312 -11.8125 L 16.988281 -12.214844 L 16.265625 -12.808594 L 15.875 -14.117188 L 15.859375 -14.734375 L 15.753906 -15.257812 L 15.730469 -16.140625 L 15.78125 -17.375 L 16.007812 -18.613281 L 15.988281 -19.316406 L 16.195312 -21.171875 L 16.089844 -21.785156 L 16.25 -22.40625 L 16.316406 -23.027344 L 16.296875 -23.730469 L 16.367188 -24.347656 L 16.613281 -24.972656 L 16.558594 -26.820312 L 16.785156 -28.148438 L 16.9375 -28.855469 L 17.082031 -30.003906 L 17.152344 -30.625 L 17.460938 -32.042969 L 17.527344 -32.75 L 18.128906 -36.289062 L 18.53125 -37.621094 L 18.671875 -38.859375 L 18.828125 -39.480469 L 18.898438 -40.011719 L 18.96875 -40.628906 L 19.210938 -41.429688 L 19.445312 -42.492188 L 19.667969 -43.820312 L 19.988281 -44.886719 L 19.972656 -45.414062 L 20.457031 -46.925781 L 20.863281 -48.082031 L 21.171875 -49.589844 L 21.417969 -50.210938 L 21.667969 -50.746094 L 22.429688 -51.738281 L 23.386719 -52.121094 L 24.4375 -52.328125 L 25.40625 -52.355469 L 26.648438 -52.039062 L 27.632812 -51.539062 L 28.207031 -49.972656 L 28.246094 -48.652344 L 28.105469 -47.414062 L 28.050781 -46.269531 L 27.578125 -44.316406 L 27.441406 -43.078125 L 27.136719 -41.484375 L 26.976562 -40.863281 L 27.011719 -39.632812 L 27.65625 -38.683594 L 30.21875 -38.40625 L 35.765625 -38.480469 L 36.996094 -38.605469 L 38.046875 -38.726562 L 38.390625 -39.085938 L 38.761719 -41.386719 L 38.917969 -42.097656 L 39.34375 -45.542969 L 39.480469 -46.957031 L 39.617188 -48.28125 L 39.773438 -48.992188 L 39.832031 -49.875 L 39.777344 -51.808594 L 39.648438 -53.125 L 39.539062 -53.917969 L 39.417969 -55.058594 L 39.296875 -56.109375 L 39.09375 -57.074219 L 38.628906 -57.941406 L 38.433594 -58.550781 L 38.15625 -58.984375 L 37.691406 -59.761719 L 37.503906 -60.195312 L 36.511719 -61.046875 L 35.339844 -61.894531 L 34.09375 -62.296875 L 33.121094 -62.445312 L 32.761719 -62.699219 L 32.144531 -62.769531 L 31.523438 -62.925781 L 30.992188 -63 L 29.753906 -63.140625 L 28.875 -63.113281 L 28.074219 -63.355469 L 25.867188 -63.554688 L 24.460938 -63.511719 L 22.792969 -63.375 L 21.472656 -63.335938 L 20.859375 -63.230469 L 19.722656 -62.929688 L 18.234375 -62.625 L 16.410156 -61.777344 L 15.890625 -61.496094 L 14.761719 -60.9375 L 14.246094 -60.480469 L 13.050781 -59.210938 L 12.371094 -58.3125 L 11.78125 -57.414062 L 11.183594 -56.867188 L 10.859375 -55.890625 L 10.367188 -54.640625 L 9.957031 -53.574219 L 9.472656 -52.0625 L 9.160156 -50.820312 L 8.683594 -49.042969 L 8.117188 -47.265625 L 7.886719 -46.113281 L 7.640625 -45.492188 L 7.574219 -44.871094 L 7.5 -44.34375 L 7.34375 -43.722656 L 7.273438 -43.101562 L 7.023438 -42.566406 L 6.960938 -41.683594 L 6.816406 -40.710938 L 6.65625 -40.089844 L 6.269531 -38.316406 L 6.304688 -37.085938 L 6.054688 -36.550781 L 6.070312 -36.023438 L 6.015625 -34.964844 L 5.777344 -34.074219 L 5.628906 -33.101562 L 5.394531 -32.125 L 5.40625 -31.773438 L 5.324219 -31.507812 L 5.359375 -30.277344 L 5.023438 -29.738281 L 4.808594 -28.148438 L 4.90625 -27.710938 L 4.671875 -26.734375 L 4.515625 -26.023438 L 4.628906 -25.234375 L 4.3125 -23.992188 L 4.191406 -22.140625 L 4.117188 -21.609375 L 4.136719 -20.992188 L 3.996094 -19.757812 L 3.945312 -18.523438 L 3.878906 -17.816406 L 3.84375 -15.964844 L 3.914062 -13.675781 L 3.84375 -13.058594 L 3.867188 -12.265625 L 3.972656 -11.566406 L 4.023438 -9.894531 L 4.21875 -9.28125 L 4.425781 -8.144531 L 4.617188 -7.621094 L 4.917969 -6.484375 L 5.742188 -5.363281 L 6.394531 -4.152344 L 6.847656 -3.722656 L 7.210938 -3.292969 L 8.382812 -2.449219 L 8.921875 -2.113281 L 9.371094 -1.773438 L 10.265625 -1.269531 L 10.808594 -0.847656 L 11.875 -0.527344 L 13.03125 -0.121094 L 13.5625 -0.046875 L 14.183594 0.109375 L 15.0625 0.171875 L 15.59375 0.246094 L 16.300781 0.3125 L 17.273438 0.371094 L 17.890625 0.441406 L 18.507812 0.421875 Z M 19.300781 0.488281 "/></g></g></g><g fill="#ff1616" fill-opacity="1"><g transform="translate(453.745594, 100.89382)"><g><path d="M 3.875 -0.0273438 L 5.015625 -0.148438 L 5.632812 -0.078125 L 8.097656 -0.152344 L 8.976562 -0.265625 L 16.191406 -0.476562 L 17.945312 -0.617188 L 19.183594 -0.476562 L 20.5 -0.605469 L 22.089844 -0.5625 L 24.015625 -0.882812 L 25.15625 -1.09375 L 26.828125 -1.140625 L 27.511719 -1.777344 L 27.824219 -3.199219 L 27.960938 -4.523438 L 28.03125 -5.054688 L 28.015625 -5.667969 L 28.261719 -6.292969 L 28.609375 -9.386719 L 28.851562 -10.097656 L 28.746094 -10.710938 L 28.902344 -11.332031 L 28.953125 -12.652344 L 28.417969 -12.902344 L 26.128906 -12.835938 L 24.195312 -12.691406 L 19.621094 -12.554688 L 18.828125 -12.621094 L 17.945312 -12.59375 L 17.492188 -13.019531 L 17.46875 -13.902344 L 17.617188 -14.785156 L 17.675781 -15.757812 L 17.835938 -16.378906 L 17.90625 -16.90625 L 17.976562 -17.527344 L 17.953125 -18.40625 L 18.105469 -19.203125 L 18.160156 -20.351562 L 18.476562 -21.503906 L 18.527344 -22.738281 L 18.683594 -23.449219 L 18.664062 -24.0625 L 18.976562 -25.480469 L 19.046875 -26.101562 L 19.113281 -26.804688 L 19.339844 -28.046875 L 19.390625 -29.367188 L 19.699219 -30.785156 L 19.769531 -31.40625 L 19.996094 -32.734375 L 20.152344 -33.355469 L 20.117188 -34.585938 L 20.273438 -35.207031 L 20.484375 -37.0625 L 20.464844 -37.765625 L 20.621094 -38.386719 L 20.511719 -39.089844 L 20.847656 -39.714844 L 21.078125 -40.867188 L 21.304688 -42.105469 L 21.460938 -42.726562 L 21.53125 -43.347656 L 21.6875 -44.054688 L 21.492188 -44.753906 L 21.824219 -45.378906 L 21.964844 -46.617188 L 22.28125 -47.859375 L 22.257812 -48.5625 L 22.488281 -49.804688 L 23.101562 -52.902344 L 23.25 -53.789062 L 23.398438 -54.761719 L 23.605469 -56.617188 L 23.765625 -57.148438 L 23.75 -57.765625 L 24.214844 -59.894531 L 24.195312 -60.507812 L 24.265625 -61.128906 L 23.972656 -62.175781 L 22.210938 -62.210938 L 18.777344 -62.109375 L 15.519531 -62.101562 L 13.40625 -62.039062 L 12.003906 -61.824219 L 11.757812 -61.289062 L 11.367188 -59.515625 L 11.207031 -58.980469 L 11.226562 -58.367188 L 11.167969 -57.308594 L 10.847656 -56.242188 L 10.625 -54.824219 L 10.578125 -53.414062 L 10.246094 -52.789062 L 10.261719 -52.261719 L 10.191406 -51.640625 L 10.210938 -51.027344 L 9.875 -50.488281 L 9.726562 -49.515625 L 9.671875 -48.367188 L 9.515625 -47.660156 L 9.710938 -47.050781 L 9.554688 -46.339844 L 9.238281 -45.097656 L 8.996094 -44.386719 L 9.105469 -43.683594 L 8.894531 -41.828125 L 8.75 -40.769531 L 8.769531 -40.152344 L 8.363281 -38.996094 L 8.398438 -37.761719 L 8.332031 -37.058594 L 7.925781 -35.898438 L 7.78125 -34.839844 L 7.636719 -33.691406 L 7.183594 -31.210938 L 7.195312 -30.769531 L 6.878906 -29.527344 L 6.605469 -26.878906 L 6.203125 -25.632812 L 6.21875 -25.019531 L 5.90625 -23.777344 L 5.921875 -23.246094 L 5.851562 -22.628906 L 5.777344 -22.097656 L 5.8125 -20.867188 L 5.652344 -20.332031 L 5.515625 -19.097656 L 5.441406 -18.566406 L 5.457031 -18.039062 L 5.210938 -17.414062 L 4.980469 -16.261719 L 5.085938 -15.738281 L 4.839844 -15.113281 L 4.679688 -14.582031 L 4.273438 -13.335938 L 4.304688 -12.28125 L 4.152344 -11.484375 L 4.011719 -10.332031 L 3.9375 -9.804688 L 3.957031 -9.1875 L 3.636719 -8.03125 L 3.675781 -6.714844 L 3.359375 -5.558594 L 3.285156 -5.027344 L 3.214844 -4.410156 L 2.980469 -3.523438 L 2.652344 -2.632812 L 2.578125 -2.101562 L 2.683594 -1.578125 L 2.789062 -0.960938 L 3.15625 -0.445312 Z M 3.875 -0.0273438 "/></g></g></g><g fill="#ff1616" fill-opacity="1"><g transform="translate(484.715043, 99.981478)"><g><path d="M 19.109375 -0.0351562 L 20.867188 -0.0859375 L 22.1875 -0.214844 L 24.210938 -0.273438 L 25.964844 -0.5 L 26.488281 -0.691406 L 27.273438 -0.890625 L 28.320312 -1.1875 L 28.84375 -1.378906 L 30.238281 -1.949219 L 30.667969 -2.3125 L 31.710938 -2.785156 L 32.402344 -3.246094 L 33.179688 -3.707031 L 33.859375 -4.609375 L 34.632812 -5.246094 L 35.136719 -6.054688 L 35.464844 -6.855469 L 35.886719 -7.484375 L 36.21875 -8.113281 L 36.710938 -9.359375 L 37.046875 -9.898438 L 37.628906 -11.058594 L 37.859375 -12.210938 L 38.285156 -12.753906 L 38.503906 -14.257812 L 38.824219 -15.410156 L 39.144531 -16.476562 L 39.300781 -17.097656 L 39.460938 -17.628906 L 39.445312 -18.246094 L 39.597656 -19.042969 L 39.832031 -20.019531 L 39.988281 -20.640625 L 39.976562 -21.167969 L 40.203125 -22.320312 L 40.527344 -23.386719 L 40.519531 -23.5625 L 40.75 -24.800781 L 40.816406 -25.421875 L 41.132812 -26.664062 L 41.363281 -27.8125 L 41.507812 -28.875 L 41.5625 -30.023438 L 41.894531 -30.734375 L 42.035156 -31.972656 L 42.015625 -32.589844 L 42.332031 -33.832031 L 42.382812 -35.066406 L 42.523438 -36.304688 L 42.59375 -36.832031 L 42.824219 -38.074219 L 42.808594 -38.601562 L 43.03125 -39.929688 L 43.589844 -41.882812 L 43.484375 -42.496094 L 43.644531 -43.117188 L 43.714844 -43.648438 L 43.875 -44.269531 L 43.855469 -44.882812 L 44.089844 -45.949219 L 44.242188 -46.746094 L 44.480469 -47.542969 L 44.632812 -48.34375 L 44.871094 -49.316406 L 44.855469 -49.84375 L 45.175781 -50.910156 L 45.070312 -51.4375 L 45.390625 -52.589844 L 45.460938 -53.210938 L 45.613281 -53.917969 L 45.683594 -54.539062 L 46 -55.78125 L 46.066406 -56.484375 L 46.207031 -57.722656 L 46.363281 -58.433594 L 46.410156 -59.753906 L 46.902344 -61.003906 L 46.777344 -62.320312 L 46.050781 -63.003906 L 45.34375 -63.070312 L 44.554688 -62.957031 L 43.941406 -62.851562 L 43.058594 -62.914062 L 42.445312 -62.808594 L 41.742188 -62.789062 L 41.125 -62.859375 L 40.507812 -62.839844 L 37.960938 -62.675781 L 37.339844 -62.746094 L 36.726562 -62.726562 L 34.085938 -62.5625 L 33.84375 -61.9375 L 33.773438 -61.230469 L 33.542969 -60.082031 L 33.316406 -58.839844 L 33.085938 -57.6875 L 33.015625 -57.160156 L 32.957031 -56.101562 L 32.882812 -55.570312 L 32.472656 -54.589844 L 32.578125 -53.976562 L 32.4375 -52.828125 L 32.296875 -51.589844 L 32.070312 -50.347656 L 32.003906 -49.644531 L 31.863281 -48.40625 L 31.796875 -47.699219 L 31.480469 -46.457031 L 31.597656 -45.492188 L 31.09375 -44.597656 L 31.128906 -43.363281 L 31.054688 -42.921875 L 30.914062 -41.683594 L 30.9375 -40.980469 L 30.621094 -39.738281 L 30.554688 -39.03125 L 30.238281 -37.789062 L 30.09375 -36.730469 L 29.863281 -35.578125 L 29.71875 -34.429688 L 29.742188 -33.726562 L 29.335938 -32.480469 L 29.179688 -31.859375 L 29.121094 -30.800781 L 28.816406 -29.207031 L 28.667969 -28.320312 L 28.527344 -27.171875 L 28.457031 -26.554688 L 28.300781 -25.84375 L 28.140625 -25.222656 L 28.078125 -24.429688 L 27.925781 -23.632812 L 27.765625 -23.097656 L 27.703125 -22.214844 L 27.542969 -21.59375 L 27.316406 -20.355469 L 26.929688 -18.582031 L 26.769531 -18.050781 L 26.617188 -17.253906 L 26.203125 -16.359375 L 25.628906 -14.933594 L 25.378906 -14.398438 L 24.871094 -13.679688 L 24.011719 -12.949219 L 21.996094 -12.625 L 20.140625 -12.835938 L 19.164062 -13.070312 L 18.164062 -14.183594 L 18.042969 -15.238281 L 18.015625 -16.207031 L 17.886719 -17.613281 L 17.957031 -18.230469 L 18.027344 -18.761719 L 18.09375 -19.554688 L 18.296875 -21.675781 L 18.527344 -22.828125 L 18.578125 -24.0625 L 18.789062 -25.828125 L 19.136719 -29.007812 L 19.28125 -30.070312 L 19.597656 -31.222656 L 19.566406 -32.367188 L 19.796875 -33.433594 L 19.960938 -33.964844 L 20.117188 -34.585938 L 20.183594 -35.292969 L 20.25 -36.085938 L 20.578125 -36.890625 L 20.367188 -38.027344 L 20.441406 -38.558594 L 20.84375 -39.804688 L 20.824219 -40.417969 L 20.980469 -41.128906 L 21.050781 -41.746094 L 21.113281 -42.628906 L 21.359375 -43.253906 L 21.429688 -43.785156 L 21.566406 -45.109375 L 21.792969 -46.4375 L 21.859375 -47.144531 L 22.265625 -48.386719 L 22.335938 -49.007812 L 22.308594 -49.886719 L 22.375 -50.59375 L 22.519531 -51.742188 L 22.839844 -52.808594 L 22.820312 -53.421875 L 22.980469 -53.957031 L 23.050781 -54.574219 L 23.207031 -55.285156 L 23.359375 -56.082031 L 23.515625 -56.703125 L 23.390625 -57.933594 L 23.550781 -58.554688 L 23.710938 -59.085938 L 23.675781 -60.316406 L 23.546875 -61.636719 L 22.738281 -62.226562 L 21.328125 -62.273438 L 20.53125 -62.339844 L 18.425781 -62.101562 L 14.726562 -62.078125 L 13.9375 -61.96875 L 13.5 -61.957031 L 12.003906 -61.824219 L 11.480469 -61.632812 L 11.328125 -60.921875 L 11.011719 -59.679688 L 10.871094 -58.445312 L 10.722656 -57.558594 L 10.558594 -57.113281 L 10.152344 -55.957031 L 9.960938 -53.484375 L 9.800781 -52.953125 L 9.820312 -52.335938 L 9.589844 -51.097656 L 9.613281 -50.390625 L 9.542969 -49.6875 L 9.316406 -48.445312 L 9.25 -47.738281 L 9.179688 -47.121094 L 8.773438 -45.964844 L 8.699219 -45.433594 L 8.71875 -44.816406 L 8.578125 -43.667969 L 8.417969 -43.136719 L 8.226562 -40.664062 L 7.976562 -40.128906 L 7.925781 -38.894531 L 7.945312 -38.191406 L 7.628906 -36.949219 L 7.398438 -35.796875 L 7.347656 -34.5625 L 7.03125 -33.40625 L 7.0625 -32.265625 L 6.90625 -31.644531 L 6.671875 -30.578125 L 6.601562 -29.960938 L 6.710938 -29.347656 L 6.476562 -28.285156 L 6.402344 -27.753906 L 6.332031 -27.132812 L 6.011719 -26.070312 L 6.046875 -24.925781 L 5.898438 -24.039062 L 5.75 -22.976562 L 5.703125 -21.65625 L 5.648438 -20.507812 L 5.367188 -18.125 L 5.214844 -17.328125 L 5.214844 -14.332031 L 5.140625 -13.800781 L 5.582031 -10.820312 L 5.707031 -9.589844 L 6.097656 -8.195312 L 6.839844 -6.984375 L 7.585938 -5.59375 L 7.679688 -5.335938 L 8.140625 -4.644531 L 8.597656 -4.128906 L 9.144531 -3.527344 L 10.046875 -2.671875 L 11.839844 -1.667969 L 12.375 -1.421875 L 13 -1.175781 L 14.511719 -0.691406 L 14.867188 -0.527344 L 15.488281 -0.367188 Z M 19.109375 -0.0351562 "/></g></g></g><g fill="#ff1616" fill-opacity="1"><g transform="translate(529.409593, 98.664801)"><g><path d="M 17.457031 0.628906 L 18.421875 0.515625 L 19.035156 0.40625 L 20.003906 0.378906 L 20.617188 0.273438 L 21.410156 0.339844 L 22.023438 0.230469 L 23.15625 -0.152344 L 23.859375 -0.261719 L 25.164062 -0.742188 L 25.683594 -1.109375 L 26.730469 -1.402344 L 27.503906 -2.042969 L 28.367188 -2.597656 L 29.054688 -3.234375 L 29.484375 -3.597656 L 30.164062 -4.410156 L 30.59375 -4.777344 L 31.007812 -5.667969 L 31.527344 -6.035156 L 32.273438 -7.554688 L 32.675781 -8.800781 L 32.828125 -9.597656 L 32.984375 -10.308594 L 33.304688 -11.460938 L 33.265625 -12.78125 L 33.335938 -13.3125 L 33.566406 -14.550781 L 33.492188 -17.015625 L 33.5625 -17.632812 L 33.457031 -18.246094 L 33.527344 -18.777344 L 33.578125 -20.011719 L 33.386719 -20.535156 L 32.90625 -22.015625 L 32.796875 -22.628906 L 32.691406 -23.332031 L 32.582031 -23.945312 L 32 -25.777344 L 31.4375 -26.90625 L 30.683594 -28.644531 L 30.582031 -29.082031 L 29.761719 -30.027344 L 29.101562 -31.503906 L 28.015625 -32.527344 L 27.550781 -33.308594 L 26.734375 -34.164062 L 26.457031 -34.597656 L 26.007812 -34.847656 L 25.730469 -35.367188 L 24.828125 -36.046875 L 24.292969 -36.382812 L 23.925781 -36.8125 L 23.554688 -37.503906 L 23.101562 -37.933594 L 22.734375 -38.449219 L 21.546875 -39.824219 L 20.542969 -41.027344 L 19.894531 -42.152344 L 19.519531 -42.847656 L 18.78125 -44.058594 L 18.117188 -45.710938 L 18.007812 -46.324219 L 17.976562 -47.46875 L 18.027344 -48.703125 L 18.265625 -49.589844 L 18.335938 -50.210938 L 18.660156 -51.097656 L 18.90625 -51.722656 L 19.328125 -52.351562 L 20.285156 -52.820312 L 21.328125 -53.203125 L 22.480469 -53.0625 L 23.378906 -52.382812 L 24.195312 -51.613281 L 24.472656 -51.09375 L 24.679688 -50.042969 L 24.742188 -48.019531 L 24.558594 -45.285156 L 24.402344 -44.574219 L 24.523438 -43.433594 L 25.246094 -42.839844 L 26.476562 -42.875 L 27.710938 -42.824219 L 32.640625 -42.96875 L 34.21875 -43.105469 L 35.261719 -43.664062 L 35.554688 -45.609375 L 35.835938 -48.082031 L 35.878906 -49.582031 L 35.738281 -51.339844 L 35.683594 -53.273438 L 35.09375 -55.371094 L 34.808594 -55.976562 L 34.605469 -56.941406 L 34.238281 -57.457031 L 33.59375 -58.410156 L 33.316406 -58.839844 L 32.410156 -59.78125 L 32.132812 -60.125 L 31.140625 -60.976562 L 30.429688 -61.222656 L 29.796875 -61.730469 L 28.726562 -62.226562 L 28.367188 -62.480469 L 27.746094 -62.550781 L 26.238281 -62.949219 L 24.917969 -62.996094 L 24.117188 -63.148438 L 23.503906 -63.132812 L 21.300781 -63.152344 L 18.574219 -63.074219 L 17.089844 -62.589844 L 15.429688 -62.1875 L 14.476562 -61.632812 L 13.085938 -61.0625 L 11.535156 -59.871094 L 10.503906 -58.960938 L 9.992188 -58.417969 L 9.488281 -57.523438 L 9.234375 -57.164062 L 8.554688 -56.351562 L 8.304688 -55.902344 L 8.058594 -55.277344 L 7.726562 -54.5625 L 7.234375 -53.40625 L 7.171875 -52.523438 L 6.933594 -51.632812 L 6.597656 -51.007812 L 6.546875 -49.773438 L 6.300781 -49.148438 L 6.175781 -47.386719 L 6.253906 -44.832031 L 6.183594 -44.214844 L 6.292969 -43.511719 L 6.414062 -42.371094 L 6.800781 -41.238281 L 6.996094 -40.539062 L 7.277344 -39.933594 L 7.734375 -39.328125 L 8.109375 -38.546875 L 8.679688 -37.242188 L 9.230469 -36.378906 L 9.691406 -35.777344 L 10.589844 -35.097656 L 11.5 -34.15625 L 12.324219 -33.035156 L 13.414062 -31.921875 L 14.414062 -30.808594 L 14.785156 -30.289062 L 15.234375 -29.863281 L 16.238281 -28.746094 L 16.699219 -28.054688 L 17.332031 -27.457031 L 17.609375 -27.027344 L 17.796875 -26.589844 L 18.164062 -26.074219 L 18.816406 -24.859375 L 19.554688 -23.824219 L 20.292969 -22.613281 L 20.597656 -21.300781 L 20.613281 -20.773438 L 21.011719 -19.199219 L 21.050781 -17.792969 L 21.175781 -16.5625 L 21.195312 -15.949219 L 21.132812 -15.066406 L 20.988281 -14.003906 L 20.667969 -12.9375 L 20.332031 -12.3125 L 19.917969 -11.507812 L 19.488281 -11.054688 L 18.527344 -10.761719 L 17.832031 -10.566406 L 17.039062 -10.542969 L 15.886719 -10.773438 L 14.980469 -11.625 L 14.324219 -12.925781 L 14.035156 -13.800781 L 13.804688 -15.730469 L 13.75 -17.578125 L 13.820312 -18.195312 L 13.722656 -21.453125 L 12.984375 -22.664062 L 11.835938 -22.71875 L 6.910156 -22.570312 L 5.851562 -22.628906 L 3.742188 -22.390625 L 2.53125 -21.738281 L 2.308594 -20.324219 L 2.148438 -19.703125 L 2.082031 -18.996094 L 1.945312 -17.671875 L 2.050781 -17.058594 L 2.007812 -15.558594 L 2.085938 -12.917969 L 2.300781 -11.515625 L 2.40625 -10.992188 L 2.707031 -9.765625 L 2.808594 -9.242188 L 3.472656 -7.675781 L 3.667969 -6.976562 L 4.328125 -5.5 L 5.15625 -4.292969 L 6.070312 -3.261719 L 6.980469 -2.144531 L 8.058594 -1.46875 L 8.957031 -0.878906 L 9.933594 -0.558594 L 11.359375 0.015625 L 11.980469 0.175781 L 12.867188 0.324219 L 13.839844 0.472656 L 14.71875 0.445312 L 15.339844 0.515625 Z M 17.457031 0.628906 "/></g></g></g><g fill="#ff1616" fill-opacity="1"><g transform="translate(564.426182, 97.633233)"><g><path d="M 12.148438 -0.183594 L 14.433594 -0.25 L 15.394531 -0.542969 L 15.636719 -1.339844 L 15.703125 -2.046875 L 15.933594 -3.199219 L 16.074219 -4.4375 L 16.304688 -5.589844 L 16.59375 -7.710938 L 16.828125 -8.6875 L 16.8125 -9.300781 L 16.953125 -10.449219 L 17.09375 -11.6875 L 17.320312 -12.925781 L 17.300781 -13.632812 L 17.617188 -14.785156 L 17.683594 -15.492188 L 17.910156 -16.820312 L 17.792969 -17.785156 L 18.207031 -18.679688 L 18.171875 -19.910156 L 18.246094 -20.351562 L 18.386719 -21.589844 L 18.367188 -22.292969 L 18.679688 -23.535156 L 18.660156 -24.238281 L 18.976562 -25.480469 L 19.121094 -26.542969 L 19.261719 -27.691406 L 19.492188 -28.84375 L 19.472656 -29.546875 L 19.71875 -30.171875 L 20.035156 -31.414062 L 20.394531 -34.066406 L 20.632812 -34.953125 L 20.777344 -36.101562 L 20.757812 -36.71875 L 20.824219 -37.425781 L 20.894531 -38.042969 L 20.871094 -38.835938 L 21.113281 -39.636719 L 21.339844 -40.875 L 21.414062 -41.316406 L 21.644531 -42.46875 L 21.878906 -43.53125 L 22.019531 -44.679688 L 22.089844 -45.300781 L 22.148438 -46.359375 L 22.21875 -46.976562 L 22.363281 -48.039062 L 22.523438 -48.570312 L 22.671875 -49.542969 L 23.042969 -51.84375 L 23.117188 -52.375 L 23.097656 -52.992188 L 23.167969 -53.523438 L 23.148438 -54.226562 L 23.476562 -55.027344 L 23.617188 -56.265625 L 23.867188 -56.714844 L 23.84375 -57.503906 L 24.097656 -57.863281 L 23.996094 -58.390625 L 24.054688 -59.359375 L 24.222656 -59.628906 L 24.1875 -60.773438 L 24.261719 -61.304688 L 23.882812 -62.171875 L 22.90625 -62.410156 L 22.292969 -62.304688 L 17.632812 -62.164062 L 17.019531 -62.058594 L 15.785156 -62.023438 L 14.992188 -62.085938 L 13.675781 -61.960938 L 13.0625 -61.855469 L 12.542969 -61.488281 L 11.933594 -61.203125 L 11.34375 -60.308594 L 11.273438 -59.6875 L 11.113281 -59.15625 L 10.976562 -57.832031 L 10.65625 -56.851562 L 10.507812 -55.878906 L 10.449219 -54.820312 L 10.289062 -54.289062 L 10.21875 -53.757812 L 9.988281 -52.605469 L 9.847656 -51.367188 L 9.683594 -50.921875 L 9.628906 -49.777344 L 9.5625 -49.070312 L 9.667969 -48.457031 L 9.351562 -47.300781 L 9.28125 -46.683594 L 9.050781 -45.53125 L 8.976562 -45 L 8.65625 -43.9375 L 8.761719 -43.324219 L 8.691406 -42.792969 L 8.550781 -41.554688 L 8.304688 -40.929688 L 8.339844 -39.699219 L 8.132812 -37.84375 L 7.726562 -36.597656 L 7.5 -35.445312 L 7.351562 -34.386719 L 7.386719 -33.242188 L 7.054688 -32.527344 L 6.917969 -31.289062 L 6.933594 -30.675781 L 6.617188 -29.433594 L 6.65625 -28.199219 L 6.515625 -26.964844 L 6.441406 -26.433594 L 6.371094 -25.816406 L 6.214844 -25.195312 L 6.230469 -24.664062 L 6.09375 -23.339844 L 5.535156 -21.386719 L 5.640625 -20.773438 L 5.484375 -20.152344 L 5.410156 -19.621094 L 5.253906 -19 L 5.269531 -18.386719 L 5.125 -17.324219 L 4.972656 -16.527344 L 4.734375 -15.726562 L 4.578125 -14.929688 L 4.34375 -13.953125 L 4.128906 -12.363281 L 4.230469 -11.835938 L 3.914062 -10.683594 L 3.84375 -10.066406 L 3.6875 -9.355469 L 3.617188 -8.738281 L 3.390625 -7.410156 L 3.324219 -6.703125 L 3.183594 -5.464844 L 3.027344 -4.84375 L 2.980469 -3.523438 L 2.574219 -2.277344 L 2.703125 -0.960938 L 3.421875 -0.363281 L 4.132812 -0.210938 L 4.835938 -0.320312 L 5.453125 -0.25 L 6.421875 -0.1875 L 7.035156 -0.296875 L 7.742188 -0.316406 L 8.976562 -0.175781 L 11.527344 -0.25 Z M 12.148438 -0.183594 "/></g></g></g><g fill="#ff1616" fill-opacity="1"><g transform="translate(587.565297, 96.951567)"><g><path d="M 17.773438 -0.523438 L 19.710938 -0.582031 L 20.410156 -0.6875 L 21.023438 -0.796875 L 21.820312 -0.644531 L 22.523438 -0.664062 L 22.957031 -0.941406 L 23.199219 -1.738281 L 23.699219 -2.722656 L 24.03125 -3.351562 L 24.53125 -4.332031 L 24.867188 -4.871094 L 25.027344 -5.40625 L 25.277344 -5.941406 L 25.4375 -6.472656 L 25.683594 -7.097656 L 26.082031 -8.429688 L 26.507812 -8.972656 L 26.753906 -9.59375 L 26.910156 -10.214844 L 27.15625 -10.839844 L 27.40625 -11.375 L 28.238281 -12.984375 L 28.820312 -14.148438 L 28.890625 -14.765625 L 29.226562 -15.390625 L 29.882812 -16.996094 L 30.289062 -18.066406 L 30.605469 -19.308594 L 31.363281 -20.472656 L 31.523438 -21.09375 L 31.769531 -21.71875 L 32.4375 -22.882812 L 32.421875 -23.410156 L 32.757812 -23.949219 L 33.007812 -24.484375 L 33.488281 -26.085938 L 33.5625 -26.617188 L 33.8125 -27.0625 L 34.148438 -27.601562 L 34.398438 -28.136719 L 34.808594 -29.117188 L 34.882812 -29.648438 L 35.128906 -30.183594 L 35.363281 -31.25 L 35.699219 -31.785156 L 35.859375 -32.320312 L 36.269531 -33.386719 L 36.855469 -34.375 L 37.355469 -35.359375 L 37.511719 -35.980469 L 37.917969 -37.136719 L 38.078125 -37.757812 L 38.484375 -38.824219 L 38.738281 -39.273438 L 39.320312 -40.4375 L 39.386719 -41.140625 L 39.632812 -41.765625 L 40.039062 -42.921875 L 40.199219 -43.457031 L 40.445312 -43.992188 L 40.699219 -44.4375 L 40.929688 -45.589844 L 41.085938 -46.210938 L 41.507812 -46.839844 L 41.917969 -47.820312 L 42.167969 -48.355469 L 42.242188 -48.886719 L 42.492188 -49.335938 L 42.640625 -50.222656 L 42.890625 -50.757812 L 43.054688 -51.203125 L 43.300781 -51.738281 L 43.726562 -52.277344 L 43.960938 -53.253906 L 44.121094 -53.785156 L 44.527344 -54.945312 L 44.773438 -55.566406 L 45.109375 -56.105469 L 45.359375 -56.640625 L 45.421875 -57.4375 L 45.667969 -58.058594 L 45.917969 -58.59375 L 45.988281 -59.214844 L 46.230469 -59.925781 L 46.730469 -60.910156 L 46.800781 -61.441406 L 46.777344 -62.320312 L 45.890625 -62.558594 L 44.746094 -62.523438 L 43.773438 -62.582031 L 42.542969 -62.546875 L 42.1875 -62.625 L 41.574219 -62.519531 L 39.460938 -62.457031 L 38.9375 -62.351562 L 38.320312 -62.421875 L 37.703125 -62.40625 L 37.171875 -62.566406 L 36.472656 -62.367188 L 35.496094 -62.605469 L 34.707031 -62.402344 L 33.757812 -61.847656 L 33.175781 -60.6875 L 31.960938 -57.039062 L 31.464844 -55.878906 L 31.21875 -55.257812 L 30.90625 -54.015625 L 30.835938 -53.394531 L 30.675781 -52.863281 L 30.605469 -52.242188 L 29.933594 -51.078125 L 29.773438 -50.546875 L 29.527344 -50.011719 L 29.28125 -49.386719 L 29.207031 -48.855469 L 28.980469 -47.617188 L 28.734375 -46.992188 L 28.660156 -46.460938 L 27.925781 -44.589844 L 27.765625 -43.96875 L 27.535156 -42.820312 L 27.207031 -42.015625 L 26.867188 -41.566406 L 26.707031 -41.121094 L 26.207031 -40.050781 L 26.136719 -39.519531 L 25.976562 -38.898438 L 25.808594 -38.628906 L 25.738281 -38.097656 L 25.578125 -37.566406 L 25.253906 -36.585938 L 25.007812 -35.964844 L 24.753906 -35.601562 L 24.597656 -34.980469 L 24.277344 -33.828125 L 24.121094 -33.207031 L 23.875 -32.582031 L 23.546875 -31.691406 L 23.476562 -31.164062 L 23.316406 -30.542969 L 22.90625 -29.648438 L 22.742188 -29.117188 L 22.320312 -28.488281 L 22.09375 -27.335938 L 21.929688 -26.800781 L 21.6875 -26.089844 L 21.105469 -24.929688 L 21.035156 -24.398438 L 20.875 -23.863281 L 20.625 -23.328125 L 20.28125 -22.964844 L 20.023438 -22.871094 L 19.921875 -23.308594 L 19.984375 -24.101562 L 19.957031 -25.070312 L 19.839844 -26.035156 L 19.984375 -27.097656 L 20.050781 -27.804688 L 20.035156 -28.417969 L 20.082031 -29.742188 L 19.980469 -30.265625 L 20.058594 -30.621094 L 20.128906 -31.238281 L 20.105469 -31.945312 L 20.167969 -32.914062 L 20.148438 -33.53125 L 20.042969 -34.144531 L 20.023438 -34.757812 L 20.089844 -35.464844 L 20.035156 -37.3125 L 20.105469 -37.933594 L 20.09375 -38.371094 L 20.148438 -39.519531 L 19.867188 -40.039062 L 19.941406 -40.570312 L 19.917969 -41.273438 L 19.984375 -42.066406 L 19.949219 -43.300781 L 20.164062 -44.890625 L 20.109375 -46.738281 L 20.179688 -47.355469 L 20.164062 -47.972656 L 19.96875 -48.585938 L 19.949219 -49.199219 L 20.019531 -49.90625 L 20 -50.523438 L 20.070312 -51.140625 L 20.050781 -51.757812 L 20.121094 -52.375 L 20.085938 -53.605469 L 19.980469 -54.21875 L 20.136719 -54.839844 L 20.097656 -56.160156 L 20.253906 -56.871094 L 20.199219 -58.628906 L 20.082031 -59.683594 L 20.078125 -59.859375 L 20.132812 -61.007812 L 19.847656 -61.613281 L 19.21875 -62.035156 L 18.601562 -62.105469 L 13.234375 -61.949219 L 12.175781 -62.003906 L 10.769531 -61.875 L 10.15625 -61.769531 L 9.097656 -61.824219 L 8.054688 -61.441406 L 7.800781 -61.082031 L 7.554688 -60.371094 L 7.582031 -59.492188 L 7.511719 -58.960938 L 7.617188 -58.347656 L 7.546875 -57.730469 L 7.652344 -57.117188 L 7.578125 -56.585938 L 7.597656 -55.96875 L 7.527344 -55.351562 L 7.632812 -54.824219 L 7.757812 -53.597656 L 7.6875 -52.976562 L 7.792969 -52.363281 L 7.742188 -51.128906 L 7.667969 -50.597656 L 7.78125 -46.816406 L 7.710938 -46.199219 L 7.816406 -45.585938 L 7.925781 -44.882812 L 8.007812 -42.066406 L 8.210938 -41.191406 L 7.980469 -40.039062 L 8.011719 -38.898438 L 8.207031 -38.285156 L 8.152344 -37.140625 L 8.082031 -36.609375 L 8.113281 -35.464844 L 8.222656 -34.765625 L 8.277344 -32.917969 L 8.472656 -32.304688 L 8.402344 -31.6875 L 8.421875 -30.984375 L 8.28125 -29.746094 L 8.316406 -28.601562 L 8.421875 -27.988281 L 8.457031 -26.84375 L 8.386719 -26.226562 L 8.664062 -25.707031 L 8.597656 -25.085938 L 8.613281 -24.472656 L 8.542969 -23.851562 L 8.734375 -23.332031 L 8.773438 -22.097656 L 8.703125 -21.480469 L 8.722656 -20.777344 L 8.652344 -20.15625 L 8.6875 -18.925781 L 8.882812 -18.316406 L 8.816406 -17.609375 L 8.921875 -16.996094 L 8.957031 -15.761719 L 8.890625 -15.144531 L 8.925781 -13.914062 L 9.121094 -13.300781 L 9.136719 -12.6875 L 9.066406 -12.066406 L 9.113281 -10.484375 L 9.222656 -9.78125 L 9.261719 -8.464844 L 9.191406 -7.84375 L 9.230469 -6.523438 L 9.441406 -5.386719 L 9.457031 -4.769531 L 9.566406 -4.15625 L 9.667969 -3.632812 L 9.609375 -2.660156 L 9.8125 -1.785156 L 10.101562 -0.824219 L 11.171875 -0.417969 L 11.347656 -0.421875 L 12.226562 -0.535156 L 14.160156 -0.59375 L 14.867188 -0.527344 L 16.804688 -0.582031 Z M 17.773438 -0.523438 "/></g></g></g><g fill="#ff1616" fill-opacity="1"><g transform="translate(629.444426, 95.717832)"><g><path d="M 7.132812 -0.0351562 L 7.832031 -0.144531 L 10.300781 -0.128906 L 10.816406 -0.496094 L 11.152344 -1.121094 L 11.402344 -1.570312 L 11.636719 -2.542969 L 12.125 -3.878906 L 12.957031 -5.578125 L 13.277344 -6.644531 L 13.523438 -7.265625 L 13.683594 -7.886719 L 14.265625 -9.050781 L 14.675781 -10.03125 L 17.050781 -10.101562 L 20.925781 -10.128906 L 22.339844 -9.992188 L 24.277344 -9.960938 L 24.386719 -9.261719 L 24.507812 -5.125 L 24.445312 -4.242188 L 24.558594 -3.367188 L 24.695312 -1.785156 L 24.894531 -0.910156 L 25.253906 -0.65625 L 26.574219 -0.695312 L 27.722656 -0.640625 L 28.597656 -0.753906 L 29.210938 -0.859375 L 30.269531 -0.804688 L 30.976562 -0.824219 L 32.90625 -0.96875 L 34.140625 -1.003906 L 34.847656 -0.9375 L 35.460938 -1.042969 C 35.8125 -1.054688 36.078125 -0.976562 36.425781 -1.074219 C 36.859375 -1.351562 36.75 -2.140625 36.648438 -2.488281 L 36.59375 -4.335938 L 36.449219 -6.269531 L 36.425781 -7.0625 L 36.320312 -7.761719 L 36.371094 -8.996094 L 36.332031 -10.316406 L 36.226562 -10.929688 L 36.105469 -12.070312 L 36.089844 -12.601562 L 35.8125 -15.9375 L 35.882812 -16.558594 L 35.757812 -17.785156 L 35.808594 -19.109375 L 35.679688 -20.425781 L 35.664062 -21.042969 L 35.457031 -25.085938 L 35.378906 -27.726562 L 35.269531 -28.425781 L 35.148438 -29.480469 L 35.050781 -32.914062 L 34.84375 -33.875 L 34.714844 -35.28125 L 34.699219 -35.808594 L 34.578125 -36.949219 L 34.652344 -37.480469 L 34.527344 -38.710938 L 34.472656 -40.46875 L 34.261719 -41.695312 L 34.207031 -43.632812 L 34.273438 -44.25 L 34.148438 -45.566406 L 34.113281 -46.800781 L 33.882812 -48.554688 L 33.761719 -49.695312 L 33.726562 -50.925781 L 33.542969 -54.09375 L 33.496094 -55.675781 L 33.304688 -56.199219 L 33.25 -58.132812 L 32.875 -61.910156 L 32.246094 -62.332031 L 31.800781 -62.496094 L 30.390625 -62.453125 L 29.601562 -62.34375 L 28.980469 -62.5 L 28.191406 -62.476562 L 26.519531 -62.339844 L 25.113281 -62.296875 L 24.234375 -62.183594 L 22.5625 -62.222656 L 21.679688 -62.195312 L 21.066406 -62.089844 L 20.746094 -61.113281 L 20.496094 -60.578125 L 20.25 -59.953125 L 19.503906 -58.34375 L 18.921875 -57.183594 L 18.441406 -55.585938 L 18.277344 -55.140625 L 17.941406 -54.601562 L 17.441406 -53.617188 L 17.285156 -52.996094 L 17.125 -52.464844 L 16.875 -51.925781 L 16.71875 -51.304688 L 15.972656 -49.699219 L 15.726562 -49.074219 L 15.488281 -48.1875 L 14.984375 -47.378906 L 14.734375 -46.84375 L 14.328125 -45.6875 L 13.679688 -43.820312 L 13.34375 -43.28125 L 12.921875 -42.652344 L 12.695312 -41.414062 L 12.199219 -40.253906 L 12.039062 -39.808594 L 11.808594 -38.65625 L 11.386719 -38.027344 L 11.15625 -36.875 L 10.90625 -36.339844 L 10.40625 -35.355469 L 10.011719 -33.847656 L 9.429688 -32.6875 L 9.1875 -31.972656 L 8.554688 -29.488281 L 8.304688 -28.953125 L 7.902344 -27.710938 L 7.652344 -27.171875 L 7.40625 -26.550781 L 7.335938 -26.019531 L 6.84375 -24.773438 L 6.6875 -24.152344 L 6.1875 -23.078125 L 5.769531 -22.363281 L 5.617188 -21.566406 L 5.460938 -20.945312 L 4.878906 -19.695312 L 4.632812 -19.070312 L 4.226562 -17.914062 L 3.980469 -17.378906 L 3.910156 -16.757812 L 3.75 -16.226562 L 3.339844 -15.15625 L 2.917969 -14.527344 L 2.757812 -13.996094 L 2.101562 -12.390625 L 1.78125 -11.238281 L 0.875 -9.097656 L 0.46875 -8.027344 L -0.0273438 -6.957031 L -0.832031 -4.289062 L -1.5 -3.125 L -1.996094 -2.054688 L -2.070312 -1.523438 L -2.226562 -0.902344 L -2.03125 -0.203125 L -1.234375 -0.0507812 L 5.191406 -0.152344 L 5.808594 -0.0820312 Z M 21.027344 -21.667969 L 20.230469 -21.730469 L 19.261719 -21.792969 L 18.558594 -21.769531 L 17.925781 -22.28125 L 18.171875 -22.902344 L 18.324219 -23.699219 L 18.480469 -24.320312 L 18.878906 -25.832031 L 19.210938 -26.457031 L 19.613281 -27.789062 L 19.683594 -28.410156 L 20.152344 -30.359375 L 20.394531 -31.160156 L 20.640625 -31.785156 L 20.878906 -32.582031 L 21.214844 -33.210938 L 21.285156 -33.828125 L 21.609375 -34.71875 L 21.941406 -35.433594 L 22.339844 -36.851562 L 22.578125 -37.742188 L 22.976562 -39.160156 L 23.292969 -40.316406 L 23.992188 -40.601562 L 24.136719 -38.578125 L 24.144531 -35.410156 L 24.152344 -32.0625 L 24.304688 -29.953125 L 24.148438 -29.246094 L 24.191406 -27.75 L 24.125 -27.128906 L 24.191406 -24.84375 L 24.125 -24.136719 L 24.230469 -23.433594 L 24.179688 -22.199219 L 23.664062 -21.746094 Z M 21.027344 -21.667969 "/></g></g></g><g clip-path="url(#id3)"><g clip-path="url(#id4)"><path fill="#ffffff" d="M 89.082031 121.851562 L 682.824219 104.359375 L 683.066406 112.605469 L 89.324219 130.097656 Z M 89.082031 121.851562 " fill-opacity="1" fill-rule="nonzero"/></g></g></svg>